<?xml version="1.0" encoding="UTF-8"?><svg id="Layer_1" xmlns="http://www.w3.org/2000/svg" viewBox="0 0 95 65.19"><defs><style>.cls-1{fill:#a78365;}.cls-1,.cls-2{stroke-width:0px;}.cls-2{fill:#173259;}</style></defs><polygon class="cls-2" points="48.57 15.06 64.49 34.52 76.8 34.52 48.57 0 20.33 34.52 32.65 34.52 48.57 15.06"/><polygon class="cls-2" points="82.71 34.52 95 34.52 66.77 0 60.62 7.51 82.71 34.52"/><polygon class="cls-1" points="48.57 22.28 38.56 34.52 50.85 34.52 54.71 29.8 48.57 22.28"/><polygon class="cls-1" points="20.04 12.76 26.8 19.52 14.51 34.52 2.22 34.52 20.04 12.76"/><path class="cls-2" d="M6.57,57.22v-1.93c0-.58-.07-1.11-.22-1.61s-.35-.91-.62-1.27c-.27-.35-.58-.63-.95-.82-.37-.19-.78-.29-1.23-.29H1.06v-2.68h2.49c.89,0,1.72.13,2.5.4.78.27,1.46.67,2.05,1.21s1.05,1.23,1.4,2.06c.35.84.52,1.83.52,2.99v4.78H0v-2.85h6.57Z"/><path class="cls-2" d="M18.67,57.27c.1.03.16.13.16.29v2.24c0,.18-.17.27-.51.27h-5.17v-17.26h3.43v14.41h1.74c.13,0,.25.02.35.05Z"/><path class="cls-2" d="M17.82,59.81v-2.24c0-.16.05-.26.16-.29s.22-.05.35-.05h4.13c.35,0,.53.09.53.27v2.24c0,.16-.05.26-.16.29-.1.03-.23.05-.37.05h-4.13c-.34,0-.51-.09-.51-.27Z"/><path class="cls-2" d="M20.93,59.81v-2.24c0-.16.05-.26.16-.29s.22-.05.35-.05h4.13c.35,0,.53.09.53.27v2.24c0,.16-.05.26-.16.29-.1.03-.23.05-.37.05h-4.13c-.34,0-.51-.09-.51-.27Z"/><path class="cls-2" d="M25.06,59.81v-2.24c0-.16.05-.26.16-.29s.22-.05.35-.05h4.13c.35,0,.53.09.53.27v2.24c0,.16-.05.26-.16.29-.1.03-.23.05-.37.05h-4.13c-.34,0-.51-.09-.51-.27Z"/><path class="cls-2" d="M29.18,59.81v-2.24c0-.16.05-.26.16-.29s.22-.05.35-.05h4.13c.35,0,.53.09.53.27v2.24c0,.16-.05.26-.16.29-.1.03-.23.05-.37.05h-4.13c-.34,0-.51-.09-.51-.27Z"/><path class="cls-2" d="M33.31,59.81v-2.24c0-.16.05-.26.16-.29s.22-.05.35-.05h4.13c.35,0,.53.09.53.27v2.24c0,.16-.05.26-.16.29-.1.03-.23.05-.37.05h-4.13c-.34,0-.51-.09-.51-.27Z"/><path class="cls-2" d="M37.44,59.81v-2.24c0-.16.05-.26.16-.29s.22-.05.35-.05h4.13c.35,0,.53.09.53.27v2.24c0,.16-.05.26-.16.29-.1.03-.23.05-.37.05h-4.13c-.34,0-.51-.09-.51-.27Z"/><path class="cls-2" d="M41.57,59.81v-2.24c0-.16.05-.26.16-.29s.22-.05.35-.05h4.13c.35,0,.53.09.53.27v2.24c0,.16-.05.26-.16.29-.1.03-.23.05-.37.05h-4.13c-.34,0-.51-.09-.51-.27Z"/><path class="cls-2" d="M45.7,59.81v-2.24c0-.16.05-.26.16-.29s.22-.05.35-.05h4.13c.35,0,.53.09.53.27v2.24c0,.16-.05.26-.16.29-.1.03-.23.05-.37.05h-4.13c-.34,0-.51-.09-.51-.27Z"/><path class="cls-2" d="M49.82,59.81v-2.24c0-.16.05-.26.16-.29s.22-.05.35-.05h4.13c.35,0,.53.09.53.27v2.24c0,.16-.05.26-.16.29-.1.03-.23.05-.37.05h-4.13c-.34,0-.51-.09-.51-.27Z"/><path class="cls-2" d="M53.95,59.81v-2.24c0-.16.05-.26.16-.29s.22-.05.35-.05h4.13c.35,0,.53.09.53.27v2.24c0,.16-.05.26-.16.29-.1.03-.23.05-.37.05h-4.13c-.34,0-.51-.09-.51-.27Z"/><path class="cls-2" d="M58.08,59.81v-2.24c0-.16.05-.26.16-.29s.22-.05.35-.05h4.13c.35,0,.53.09.53.27v2.24c0,.16-.05.26-.16.29-.1.03-.23.05-.37.05h-4.13c-.34,0-.51-.09-.51-.27Z"/><path class="cls-2" d="M62.21,59.81v-2.24c0-.16.05-.26.16-.29s.22-.05.35-.05h4.13c.35,0,.53.09.53.27v2.24c0,.16-.05.26-.16.29-.1.03-.23.05-.37.05h-4.13c-.34,0-.51-.09-.51-.27Z"/><path class="cls-2" d="M66.34,59.81v-2.24c0-.16.05-.26.16-.29s.22-.05.35-.05h4.13c.35,0,.53.09.53.27v2.24c0,.16-.05.26-.16.29-.1.03-.23.05-.37.05h-4.13c-.34,0-.51-.09-.51-.27Z"/><path class="cls-2" d="M70.44,57.76c0-.14.05-.27.16-.37.1-.1.23-.16.37-.16h12.99c-.05-.26-.1-.53-.17-.82-.05-.24-.1-.51-.16-.81-.06-.3-.1-.59-.13-.88-.18-1.17-.64-2.1-1.38-2.79-.74-.68-1.64-1.03-2.7-1.03-.48,0-.95.08-1.4.25-.45.17-.86.39-1.22.65s-.66.58-.91.93c-.24.35-.39.71-.46,1.06h-3.09c.05-.8.27-1.55.68-2.23.4-.68.93-1.27,1.58-1.76.65-.49,1.39-.88,2.22-1.16.83-.28,1.69-.42,2.59-.42,1.17,0,2.2.17,3.09.51.89.34,1.64.8,2.26,1.4.62.6,1.11,1.3,1.47,2.12.36.82.59,1.71.69,2.68.1.89.18,1.6.24,2.14.06.54.13.98.19,1.33.06.35.12.64.17.88.05.24.11.51.19.8h-16.75c-.14,0-.27-.05-.37-.16-.1-.1-.16-.23-.16-.37v-1.79ZM80.7,62.37v2.82h-3.43v-2.82h3.43Z"/><path class="cls-2" d="M91.1,40.04v-.07c-.1-.13-.18-.27-.24-.43-.06-.16-.1-.33-.1-.51,0-.56.19-1,.57-1.3.38-.31.87-.46,1.48-.46.24,0,.48.03.71.1.23.06.44.16.63.3s.34.31.46.53c.12.22.19.48.21.78h-1.3c-.02-.23-.09-.39-.22-.51s-.29-.17-.48-.17c-.18,0-.33.07-.46.22s-.19.35-.19.63c0,.55.23.84.68.89h2.03v1.11h-4.54v-1.11h.77ZM90.86,42.81h3.43v17.26h-3.43v-17.26Z"/></svg>