<svg id="Layer_1" height="512" viewBox="0 0 512 512" width="512" xmlns="http://www.w3.org/2000/svg" data-name="Layer 1"><path d="m494.35 235.87v202.59l-40.95 40.95v-202.59z" fill="#d9b089"/><path d="m494.35 235.87-40.95 40.95h-44.89v-.69l40.26-40.26z" fill="#f8d3ac"/><path d="m236 277h218v202h-218z" fill="#ebc59d"/><path d="m449.77 235.87-40.26 40.26v-202.59l40.95-40.95v202.59z" fill="#967669"/><path d="m192.09 74-1.09.54v202.46h219v-.87-202.13z" fill="#af8977"/><path d="m17 277h219v202h-219z" fill="#7f5d4a"/><path d="m341.26 33.59-40.95 40.95h109.2l40.95-40.95z" fill="#c79a83"/><path d="m232.06 33.59-39.97 40.95h108.22l40.95-40.95z" fill="#e1b7a3"/><path d="m191 236.87h-24.2l-40.95 40.95h65.26v-40.95z" fill="#926d56"/><path d="m57.6 236.87-40.95 40.95h109.2l40.95-40.95z" fill="#a07b67"/><path d="m314.56 276.82v.21 37.59h61.53v-37.59-.21z" fill="#cae6ee"/><path d="m374.06 479.31v.1h-57.47v-.1-54.94l9.4 9.91 9.72-9.91 9.62 9.91 9.61-9.91 9.72 9.91 9.4-9.91z" fill="#d8ff33"/><path d="m269.67 73.54v.21 37.59h61.52v-37.59-.21z" fill="#cae6ee"/><path d="m319.76 231-9.71-9.91-9.62 9.91-9.61-9.91-9.72 9.91-9.41-9.91v55.73h57.48v-55.73z" fill="#fb6771"/><path d="m95.21 276.82v.21 37.59h61.52v-37.59-.21z" fill="#cae6ee"/><path d="m154.71 479.31v.1h-57.48v-.1-54.94l9.41 9.91 9.72-9.91 9.61 9.91 9.61-9.91 9.72 9.91 9.41-9.91z" fill="#5fa8ed"/><path d="m222.09 74h-30l-1.09.54v202.46h30v-202.46z" fill="#c6a599"/><path d="m17 277h30v202h-30z" fill="#997462"/><path d="m232.06 33.59-39.97 40.95h30l39.97-40.95z" fill="#efccbf"/><path d="m57.6 236.87-40.95 40.95h30l40.95-40.95z" fill="#af8c7d"/><g fill="#f4f8fc"><path d="m43.667 315.059a6 6 0 0 1 -6-6v-6.3a6 6 0 0 1 12 0v6.3a6 6 0 0 1 -6 6z"/><path d="m43.667 400.058a6 6 0 0 1 -6-6v-66a6 6 0 0 1 12 0v66a6 6 0 0 1 -6 6z"/></g></svg>