<svg xmlns="http://www.w3.org/2000/svg" height="512.00002pt" version="1.1" viewBox="0 0 512.00002 512.00002" width="512.00002pt">
<g id="surface1">
<path d="M 220.691406 52.964844 L 406.070312 52.964844 L 406.070312 17.65625 C 406.039062 7.917969 398.152344 0.0273438 388.414062 0 L 114.757812 0 L 114.757812 88.277344 C 114.757812 98.027344 106.855469 105.929688 97.105469 105.929688 L 0 105.929688 L 0 441.378906 C 0.0273438 451.117188 7.917969 459.003906 17.65625 459.035156 L 105.929688 459.035156 L 105.929688 158.894531 Z M 220.691406 52.964844 " style=" stroke:none;fill-rule:nonzero;fill:rgb(100%,88.627451%,74.117647%);fill-opacity:1;" />
<path d="M 114.757812 88.277344 L 114.757812 0 L 0 105.929688 L 97.101562 105.929688 C 106.855469 105.929688 114.757812 98.027344 114.757812 88.277344 Z M 114.757812 88.277344 " style=" stroke:none;fill-rule:nonzero;fill:rgb(100%,66.27451%,57.647059%);fill-opacity:1;" />
<path d="M 494.34375 52.964844 L 220.691406 52.964844 L 220.691406 141.242188 C 220.691406 150.992188 212.785156 158.894531 203.035156 158.894531 L 105.929688 158.894531 L 105.929688 494.34375 C 105.960938 504.082031 113.847656 511.972656 123.585938 512 L 494.34375 512 C 504.082031 511.972656 511.96875 504.082031 512 494.34375 L 512 70.621094 C 511.972656 60.882812 504.082031 52.996094 494.34375 52.964844 Z M 494.34375 52.964844 " style=" stroke:none;fill-rule:nonzero;fill:rgb(100%,91.372549%,80%);fill-opacity:1;" />
<path d="M 203.035156 158.894531 C 212.785156 158.894531 220.691406 150.992188 220.691406 141.242188 L 220.691406 52.964844 L 105.929688 158.894531 Z M 203.035156 158.894531 " style=" stroke:none;fill-rule:nonzero;fill:rgb(100%,66.27451%,57.647059%);fill-opacity:1;" />
<path d="M 220.691406 512 L 494.34375 512 C 504.09375 512 512 504.09375 512 494.34375 L 512 239.148438 C 463.777344 371.226562 355.640625 472.515625 220.691406 512 Z M 220.691406 512 " style=" stroke:none;fill-rule:nonzero;fill:rgb(100%,88.627451%,74.117647%);fill-opacity:1;" />
<path d="M 441.378906 291.308594 L 176.550781 291.308594 C 171.675781 291.308594 167.722656 287.359375 167.722656 282.484375 C 167.722656 277.609375 171.675781 273.65625 176.550781 273.65625 L 441.378906 273.65625 C 446.253906 273.65625 450.207031 277.609375 450.207031 282.484375 C 450.207031 287.359375 446.253906 291.308594 441.378906 291.308594 Z M 441.378906 291.308594 " style=" stroke:none;fill-rule:nonzero;fill:rgb(100%,47.45098%,33.72549%);fill-opacity:1;" />
<path d="M 441.378906 344.277344 L 176.550781 344.277344 C 171.675781 344.277344 167.722656 340.324219 167.722656 335.449219 C 167.722656 330.574219 171.675781 326.621094 176.550781 326.621094 L 441.378906 326.621094 C 446.253906 326.621094 450.207031 330.574219 450.207031 335.449219 C 450.207031 340.324219 446.253906 344.277344 441.378906 344.277344 Z M 441.378906 344.277344 " style=" stroke:none;fill-rule:nonzero;fill:rgb(100%,47.45098%,33.72549%);fill-opacity:1;" />
<path d="M 441.378906 397.242188 L 176.550781 397.242188 C 171.675781 397.242188 167.722656 393.289062 167.722656 388.414062 C 167.722656 383.539062 171.675781 379.585938 176.550781 379.585938 L 441.378906 379.585938 C 446.253906 379.585938 450.207031 383.539062 450.207031 388.414062 C 450.207031 393.289062 446.253906 397.242188 441.378906 397.242188 Z M 441.378906 397.242188 " style=" stroke:none;fill-rule:nonzero;fill:rgb(100%,47.45098%,33.72549%);fill-opacity:1;" />
<path d="M 441.378906 450.207031 L 176.550781 450.207031 C 171.675781 450.207031 167.722656 446.253906 167.722656 441.378906 C 167.722656 436.503906 171.675781 432.550781 176.550781 432.550781 L 441.378906 432.550781 C 446.253906 432.550781 450.207031 436.503906 450.207031 441.378906 C 450.207031 446.253906 446.253906 450.207031 441.378906 450.207031 Z M 441.378906 450.207031 " style=" stroke:none;fill-rule:nonzero;fill:rgb(100%,47.45098%,33.72549%);fill-opacity:1;" />
<path d="M 441.378906 238.34375 L 247.171875 238.34375 C 242.296875 238.34375 238.34375 234.390625 238.34375 229.515625 C 238.34375 224.640625 242.296875 220.691406 247.171875 220.691406 L 441.378906 220.691406 C 446.253906 220.691406 450.207031 224.640625 450.207031 229.515625 C 450.207031 234.390625 446.253906 238.34375 441.378906 238.34375 Z M 441.378906 238.34375 " style=" stroke:none;fill-rule:nonzero;fill:rgb(100%,47.45098%,33.72549%);fill-opacity:1;" />
<path d="M 211.863281 238.34375 L 176.550781 238.34375 C 171.675781 238.34375 167.726562 234.390625 167.726562 229.515625 C 167.726562 224.640625 171.675781 220.691406 176.550781 220.691406 L 211.863281 220.691406 C 216.738281 220.691406 220.691406 224.640625 220.691406 229.515625 C 220.691406 234.390625 216.738281 238.34375 211.863281 238.34375 Z M 211.863281 238.34375 " style=" stroke:none;fill-rule:nonzero;fill:rgb(100%,47.45098%,33.72549%);fill-opacity:1;" />
</g>
</svg>