<svg xmlns="http://www.w3.org/2000/svg" width="23.141" height="28.062" viewBox="0 0 23.141 28.062">
  <g id="lock-icon" transform="translate(-797.37 -731.695)">
    <path id="Path_854" data-name="Path 854" d="M818.232,736.2v7.16h-3.454V736.2a.885.885,0,0,0-.863-.9h-9.948a.885.885,0,0,0-.863.9v7.16H799.65V736.2a4.426,4.426,0,0,1,4.317-4.5h9.948a4.414,4.414,0,0,1,4.317,4.5" fill="#fff"/>
    <path id="Path_855" data-name="Path 855" d="M818.439,744.375h-19a2.109,2.109,0,0,0-2.073,2.143v11.1a2.109,2.109,0,0,0,2.073,2.143h19a2.108,2.108,0,0,0,2.072-2.143v-11.1a2.108,2.108,0,0,0-2.072-2.143m-8.587,9.643V757.2c0,.544-1.868.544-1.868,0v-3.181a3.4,3.4,0,0,1-2.351-3.269,3.288,3.288,0,1,1,6.57,0,3.4,3.4,0,0,1-2.351,3.269" fill="#fff"/>
  </g>
</svg>
