<svg xmlns="http://www.w3.org/2000/svg" width="126.748" height="84.821" viewBox="0 0 126.748 84.821">
  <g id="_2030logo" data-name="2030logo" transform="translate(134.854 -12.076)">
    <rect id="Rectangle_356" data-name="Rectangle 356" width="1.427" height="1.427" transform="translate(-60.181 13.63)" fill="#a6a5a7"/>
    <rect id="Rectangle_357" data-name="Rectangle 357" width="1.427" height="1.427" transform="translate(-30.544 31.311)" fill="#a6a5a7"/>
    <path id="Path_965" data-name="Path 965" d="M-13.228,29.789a2.047,2.047,0,0,0,.84-.714,3.354,3.354,0,0,0,.46-1.141,7.332,7.332,0,0,0,.127-1.507V16.469h-1.427v9.958a6.243,6.243,0,0,1-.063,1.015,2.152,2.152,0,0,1-.207.682.874.874,0,0,1-.412.381,1.626,1.626,0,0,1-.666.111,2.108,2.108,0,0,1-.333-.016c-.095-.016-.222-.048-.4-.1l-.381,1.363a4.244,4.244,0,0,0,1.158.159,2.693,2.693,0,0,0,1.3-.238" fill="#a6a5a7"/>
    <path id="Path_966" data-name="Path 966" d="M-18.128,13.947h-1.95v-.333a.633.633,0,0,1,.111-.412.587.587,0,0,1,.444-.127h.983v-1h-1.015a1.714,1.714,0,0,0-1.253.428,1.878,1.878,0,0,0-.444,1.364v1.157h3.124Z" fill="#a6a5a7"/>
    <rect id="Rectangle_358" data-name="Rectangle 358" width="1.427" height="1.427" transform="translate(-33.398 31.311)" fill="#a6a5a7"/>
    <rect id="Rectangle_359" data-name="Rectangle 359" width="1.427" height="1.427" transform="translate(-57.327 13.63)" fill="#a6a5a7"/>
    <path id="Path_967" data-name="Path 967" d="M-24.55,25a5.875,5.875,0,0,0,1.887.856,8.732,8.732,0,0,0,2.268.27h.38l.476-1v1.411a1.866,1.866,0,0,1-.634,1.6,2.986,2.986,0,0,1-1.808.476,5.312,5.312,0,0,1-1.189-.127,6.578,6.578,0,0,1-1.206-.428l-.444,1.364a13.654,13.654,0,0,0,1.459.46,5.8,5.8,0,0,0,1.269.158,4.068,4.068,0,0,0,3.029-.983,3.678,3.678,0,0,0,.951-2.664V16.468H-20.4a7.313,7.313,0,0,0-2.411.381,5.79,5.79,0,0,0-1.855,1.015,4.42,4.42,0,0,0-1.2,1.554,4.488,4.488,0,0,0-.428,1.95,4.561,4.561,0,0,0,.475,2.157A3.95,3.95,0,0,0-24.55,25m0-5.043a3.452,3.452,0,0,1,.872-1.094,3.979,3.979,0,0,1,1.237-.7,4.641,4.641,0,0,1,1.4-.254h2.3l-.809.413v6.39h-1.427a5.16,5.16,0,0,1-1.507-.222,3.534,3.534,0,0,1-1.236-.65,3.179,3.179,0,0,1-.841-1.046,3.157,3.157,0,0,1-.3-1.428,3.183,3.183,0,0,1,.317-1.411" fill="#a6a5a7"/>
    <path id="Path_968" data-name="Path 968" d="M-59.8,29.837h2.965V28.774l.095.143a2.034,2.034,0,0,0,.84.713,3.081,3.081,0,0,0,1.285.254h25.99V16.469h-1.427v12h-24.5a1.632,1.632,0,0,1-.666-.111.953.953,0,0,1-.412-.381,1.827,1.827,0,0,1-.206-.682,6.239,6.239,0,0,1-.064-1.014V16.469h-3.853a6.567,6.567,0,0,0-6.628,6.692v.031A6.489,6.489,0,0,0-59.8,29.837m-5.059-6.724a5.081,5.081,0,0,1,5.074-5.3h3.33l-.872.428v8.024a8.641,8.641,0,0,0,.127,1.506,3.436,3.436,0,0,0,.222.714h-2.775a5.139,5.139,0,0,1-5.106-5.344Z" fill="#a6a5a7"/>
    <path id="Path_969" data-name="Path 969" d="M-73.517,26.316l.618,1.633-9.038-11.5h-1.427V29.821h1.474V19.751l-.84-1.95,9.483,12.02h1.205V16.453h-1.475Z" fill="#a6a5a7"/>
    <path id="Path_970" data-name="Path 970" d="M-53.22,51.148l8.214-7.833V37.94H-66.952v6.121h11.258l4.171-2.68L-61.942,51.847l1.11,4.535h2.966c4,0,6.359,1.475,6.359,4.123V60.6c0,2.41-1.9,3.933-4.6,3.933-3.3,0-5.614-1.4-7.849-3.885l-4.916,4.677A15.8,15.8,0,0,0-56.2,70.939c7.247,0,11.7-4.488,11.7-10.609v-.1c.015-6.026-4.314-8.341-8.722-9.087" fill="#a6a5a7"/>
    <path id="Path_971" data-name="Path 971" d="M-92.642,16.231a6.775,6.775,0,0,0-6.85,6.913v.032a6.7,6.7,0,0,0,6.8,6.866,6.775,6.775,0,0,0,6.85-6.913V23.1a6.7,6.7,0,0,0-6.8-6.866m5.249,6.945a5.244,5.244,0,0,1-5.233,5.471,5.314,5.314,0,0,1-5.28-5.518V23.1a5.244,5.244,0,0,1,5.232-5.471,5.314,5.314,0,0,1,5.281,5.518Z" fill="#a6a5a7"/>
    <path id="Path_972" data-name="Path 972" d="M-25.327,37.4c-10.022,0-17.317,7.548-17.317,16.777v.095c0,9.213,7.2,16.682,17.222,16.682S-8.106,63.407-8.106,54.178v-.1c0-9.229-7.2-16.682-17.221-16.682m9.752,16.856c0,5.566-4,10.1-9.752,10.1a9.867,9.867,0,0,1-9.848-10.2v-.095c0-5.566,4-10.1,9.753-10.1a9.866,9.866,0,0,1,9.847,10.2Z" fill="#a6a5a7"/>
    <rect id="Rectangle_360" data-name="Rectangle 360" width="1.506" height="13.352" transform="translate(-103.599 16.453)" fill="#a6a5a7"/>
    <path id="Path_973" data-name="Path 973" d="M-127.861,66.673l1.38-1.062,7.1-5.471c5.756-4.44,8.547-7.136,8.547-12.559V47.5c0-6.073-4.456-10.006-11.195-10.006-5.8,0-8.912,2.363-12.116,6.724l5.011,4.028c2.411-2.966,4.139-4.361,6.645-4.361,2.553,0,4.36,1.475,4.36,4.218,0,2.68-1.585,4.44-5.613,7.786l-10.815,8.848v5.646h24.04V64.215H-122.9Z" fill="#a6a5a7"/>
    <path id="Path_974" data-name="Path 974" d="M-127.75,29.915l5.74-13.463h-1.617l-4.551,10.958.143,1.458-.365-.9-3.949-9.515-.824-2h-1.681l5.756,13.463Z" fill="#a6a5a7"/>
    <rect id="Rectangle_361" data-name="Rectangle 361" width="1.506" height="13.352" transform="translate(-119.947 16.453)" fill="#a6a5a7"/>
    <path id="Path_975" data-name="Path 975" d="M-110.449,22.415c-2.949-.634-3.631-1.332-3.631-2.6v-.031c0-1.206,1.11-2.157,2.854-2.157a5.972,5.972,0,0,1,3.869,1.443l.872-1.158a6.99,6.99,0,0,0-4.709-1.649c-2.537,0-4.393,1.538-4.393,3.648v.031c0,2.189,1.412,3.188,4.488,3.854,2.807.586,3.473,1.3,3.473,2.537v.031c0,1.317-1.19,2.268-2.982,2.268a6.387,6.387,0,0,1-4.582-1.887l-.936,1.11A7.857,7.857,0,0,0-110.655,30c2.664,0,4.567-1.491,4.567-3.774v-.032c0-2.045-1.38-3.124-4.361-3.774" fill="#a6a5a7"/>
    <path id="Path_976" data-name="Path 976" d="M-91.087,35.259l1.649,1.57-1.586,1.649-1.633-1.57Z" fill="#38457e"/>
    <rect id="Rectangle_362" data-name="Rectangle 362" width="2.277" height="2.277" transform="translate(-87.313 36.909) rotate(-46.405)" fill="#ababad"/>
    <path id="Path_977" data-name="Path 977" d="M-89.629,38.97l1.269,1.237,1.236-1.284L-88.408,37.7Z" fill="#cbd33d"/>
    <path id="Path_978" data-name="Path 978" d="M-84.935,39.668l1.284,1.237,1.221-1.285L-83.714,38.4Z" fill="#77b64f"/>
    <path id="Path_979" data-name="Path 979" d="M-91.722,40.92l1.269,1.237,1.236-1.284L-90.5,39.651Z" fill="#cbd33d"/>
    <path id="Path_980" data-name="Path 980" d="M-87.424,41.079l1.269,1.221,1.236-1.269L-86.2,39.794Z" fill="#37b3b9"/>
    <path id="Path_981" data-name="Path 981" d="M-89.105,42.554l.888.856.872-.9-.9-.856Z" fill="#77b64f"/>
    <path id="Path_982" data-name="Path 982" d="M-85.712,43.22l.9.872.856-.9-.888-.856Z" fill="#5eb262"/>
    <rect id="Rectangle_363" data-name="Rectangle 363" width="2.838" height="2.838" transform="translate(-78.29 36.381) rotate(-10.371)" fill="#3787c7"/>
    <rect id="Rectangle_364" data-name="Rectangle 364" width="2.283" height="2.283" transform="matrix(0.984, -0.18, 0.18, 0.984, -81.94, 37.544)" fill="#334874"/>
    <rect id="Rectangle_365" data-name="Rectangle 365" width="2.283" height="2.284" transform="translate(-77.606 40.672) rotate(-10.394)" fill="#37b3b9"/>
    <rect id="Rectangle_366" data-name="Rectangle 366" width="1.773" height="1.773" transform="matrix(0.984, -0.179, 0.179, 0.984, -80.685, 41)" fill="#cbd33d"/>
    <rect id="Rectangle_367" data-name="Rectangle 367" width="1.776" height="1.776" transform="translate(-77.299 44.313) rotate(-10.378)" fill="#ababad"/>
    <rect id="Rectangle_368" data-name="Rectangle 368" width="1.776" height="1.776" transform="translate(-83.308 41.712) rotate(-10.378)" fill="#37b3b9"/>
    <rect id="Rectangle_369" data-name="Rectangle 369" width="1.776" height="1.776" transform="translate(-80.137 43.995) rotate(-10.378)" fill="#77b64f"/>
    <rect id="Rectangle_370" data-name="Rectangle 370" width="1.253" height="1.253" transform="matrix(0.984, -0.18, 0.18, 0.984, -82.357, 44.198)" fill="#ababad"/>
    <rect id="Rectangle_371" data-name="Rectangle 371" width="1.253" height="1.252" transform="translate(-80.007 46.735) rotate(-10.349)" fill="#5eb262"/>
    <rect id="Rectangle_372" data-name="Rectangle 372" width="2.844" height="2.844" transform="translate(-71.186 48.088) rotate(-64.579)" fill="#38457e"/>
    <path id="Path_983" data-name="Path 983" d="M-73.613,44.346l-.983,2.046,2.061.983.983-2.062Z" fill="#37b3b9"/>
    <path id="Path_984" data-name="Path 984" d="M-71.932,49.4l-.983,2.061,2.061.968.983-2.046Z" fill="#77b64f"/>
    <rect id="Rectangle_373" data-name="Rectangle 373" width="1.774" height="1.773" transform="translate(-75.389 49.468) rotate(-64.591)" fill="#cbd33d"/>
    <rect id="Rectangle_374" data-name="Rectangle 374" width="1.774" height="1.773" transform="translate(-74.58 54.13) rotate(-64.591)" fill="#cbd33d"/>
    <rect id="Rectangle_375" data-name="Rectangle 375" width="1.774" height="1.773" transform="translate(-77.926 48.517) rotate(-64.591)" fill="#3787c7"/>
    <rect id="Rectangle_376" data-name="Rectangle 376" width="1.774" height="1.773" transform="translate(-76.689 52.211) rotate(-64.591)" fill="#ababad"/>
    <rect id="Rectangle_377" data-name="Rectangle 377" width="1.248" height="1.248" transform="translate(-78.401 50.61) rotate(-64.421)" fill="#77b64f"/>
    <rect id="Rectangle_378" data-name="Rectangle 378" width="1.253" height="1.253" transform="translate(-77.969 54.055) rotate(-64.56)" fill="#37b3b9"/>
    <rect id="Rectangle_379" data-name="Rectangle 379" width="2.839" height="2.839" transform="translate(-71.076 59.157) rotate(-28.714)" fill="#3787c7"/>
    <rect id="Rectangle_380" data-name="Rectangle 380" width="2.278" height="2.278" transform="translate(-72.851 55.795) rotate(-28.704)" fill="#37b3b9"/>
    <rect id="Rectangle_381" data-name="Rectangle 381" width="2.278" height="2.278" transform="translate(-74.453 60.885) rotate(-28.704)" fill="#37b3b9"/>
    <rect id="Rectangle_382" data-name="Rectangle 382" width="1.774" height="1.774" transform="translate(-75.293 57.824) rotate(-28.848)" fill="#38457e"/>
    <rect id="Rectangle_383" data-name="Rectangle 383" width="1.774" height="1.774" transform="translate(-77.371 62.09) rotate(-28.848)" fill="#5eb262"/>
    <path id="Path_985" data-name="Path 985" d="M-75.23,54.716l-1.554.856.84,1.554,1.57-.856Z" fill="#334874"/>
    <path id="Path_986" data-name="Path 986" d="M-76.4,58.443l-1.554.856.856,1.538,1.554-.84Z" fill="#cbd33d"/>
    <rect id="Rectangle_384" data-name="Rectangle 384" width="1.25" height="1.249" transform="translate(-78.402 57.001) rotate(-28.864)" fill="#ababad"/>
    <rect id="Rectangle_385" data-name="Rectangle 385" width="1.25" height="1.249" transform="translate(-80.067 60.029) rotate(-28.864)" fill="#37b3b9"/>
    <rect id="Rectangle_386" data-name="Rectangle 386" width="2.838" height="2.838" transform="translate(-77.826 71.02) rotate(-82.958)" fill="#77b64f"/>
    <rect id="Rectangle_387" data-name="Rectangle 387" width="2.283" height="2.283" transform="translate(-77.22 66.705) rotate(-82.931)" fill="#334874"/>
    <rect id="Rectangle_388" data-name="Rectangle 388" width="2.283" height="2.283" transform="translate(-81.509 69.896) rotate(-82.931)" fill="#37b3b9"/>
    <rect id="Rectangle_389" data-name="Rectangle 389" width="1.776" height="1.776" transform="matrix(0.123, -0.992, 0.992, 0.123, -80.339, 66.425)" fill="#77b64f"/>
    <rect id="Rectangle_390" data-name="Rectangle 390" width="1.776" height="1.776" transform="matrix(0.123, -0.992, 0.992, 0.123, -84.515, 68.671)" fill="#ababad"/>
    <rect id="Rectangle_391" data-name="Rectangle 391" width="1.776" height="1.776" transform="matrix(0.123, -0.992, 0.992, 0.123, -80.222, 63.709)" fill="#ababad"/>
    <rect id="Rectangle_392" data-name="Rectangle 392" width="1.776" height="1.776" transform="matrix(0.123, -0.992, 0.992, 0.123, -83.36, 66.051)" fill="#77b64f"/>
    <rect id="Rectangle_393" data-name="Rectangle 393" width="1.253" height="1.253" transform="matrix(0.123, -0.992, 0.992, 0.123, -82.302, 63.426)" fill="#ababad"/>
    <rect id="Rectangle_394" data-name="Rectangle 394" width="1.253" height="1.252" transform="matrix(0.123, -0.992, 0.992, 0.123, -85.423, 64.899)" fill="#ababad"/>
    <path id="Path_987" data-name="Path 987" d="M-85.886,73.729l-2.093-1.935L-89.9,73.888l2.077,1.918Z" fill="#cbd33d"/>
    <path id="Path_988" data-name="Path 988" d="M-86.267,33.991l-2.093-1.935-1.935,2.078,2.093,1.934Z" fill="#77b64f"/>
    <rect id="Rectangle_395" data-name="Rectangle 395" width="2.278" height="2.278" transform="translate(-86.885 70.732) rotate(-46.976)" fill="#37b3b9"/>
    <path id="Path_989" data-name="Path 989" d="M-89.01,70.7l-1.665-1.538-1.554,1.665,1.665,1.538Z" fill="#77b64f"/>
    <rect id="Rectangle_396" data-name="Rectangle 396" width="1.773" height="1.773" transform="matrix(0.68, -0.733, 0.733, 0.68, -89.232, 68.687)" fill="#3787c7"/>
    <rect id="Rectangle_397" data-name="Rectangle 397" width="1.773" height="1.773" transform="matrix(0.68, -0.733, 0.733, 0.68, -93.941, 68.068)" fill="#cbd33d"/>
    <rect id="Rectangle_398" data-name="Rectangle 398" width="1.773" height="1.773" transform="matrix(0.68, -0.733, 0.733, 0.68, -87.567, 66.562)" fill="#cbd33d"/>
    <rect id="Rectangle_399" data-name="Rectangle 399" width="1.773" height="1.773" transform="matrix(0.68, -0.733, 0.733, 0.68, -91.468, 66.625)" fill="#ababad"/>
    <rect id="Rectangle_400" data-name="Rectangle 400" width="1.245" height="1.246" transform="matrix(0.674, -0.739, 0.739, 0.674, -89.073, 65.103)" fill="#334874"/>
    <path id="Path_990" data-name="Path 990" d="M-90.723,64.405l-.92-.84-.84.9.92.857Z" fill="#ababad"/>
    <rect id="Rectangle_401" data-name="Rectangle 401" width="2.838" height="2.838" transform="matrix(0.98, -0.197, 0.197, 0.98, -101.373, 69.149)" fill="#3787c7"/>
    <rect id="Rectangle_402" data-name="Rectangle 402" width="2.283" height="2.283" transform="translate(-97.096 68.364) rotate(-11.315)" fill="#37b3b9"/>
    <rect id="Rectangle_403" data-name="Rectangle 403" width="2.284" height="2.284" transform="matrix(0.98, -0.197, 0.197, 0.98, -101.468, 65.322)" fill="#77b64f"/>
    <rect id="Rectangle_404" data-name="Rectangle 404" width="1.779" height="1.779" transform="matrix(0.981, -0.196, 0.196, 0.981, -97.795, 65.325)" fill="#cbd33d"/>
    <rect id="Rectangle_405" data-name="Rectangle 405" width="1.776" height="1.776" transform="translate(-95.194 64.581) rotate(-11.335)" fill="#38457e"/>
    <rect id="Rectangle_406" data-name="Rectangle 406" width="1.776" height="1.776" transform="translate(-98.398 62.344) rotate(-11.335)" fill="#3787c7"/>
    <rect id="Rectangle_407" data-name="Rectangle 407" width="1.252" height="1.252" transform="translate(-95.559 62.506) rotate(-11.327)" fill="#77b64f"/>
    <rect id="Rectangle_408" data-name="Rectangle 408" width="1.252" height="1.253" transform="matrix(0.98, -0.197, 0.197, 0.98, -97.954, 60.017)" fill="#ababad"/>
    <path id="Path_991" data-name="Path 991" d="M-106.5,62.375l1.189-2.585-2.6-1.173-1.174,2.569Z" fill="#37b3b9"/>
    <rect id="Rectangle_409" data-name="Rectangle 409" width="2.285" height="2.285" transform="translate(-104.915 62.55) rotate(-65.398)" fill="#cbd33d"/>
    <rect id="Rectangle_410" data-name="Rectangle 410" width="2.278" height="2.279" transform="translate(-106.675 57.523) rotate(-65.741)" fill="#3787c7"/>
    <rect id="Rectangle_411" data-name="Rectangle 411" width="1.776" height="1.776" transform="translate(-103.497 59.212) rotate(-65.484)" fill="#37b3b9"/>
    <path id="Path_992" data-name="Path 992" d="M-99.714,63.993l.729-1.617-1.617-.73-.729,1.6Z" fill="#ababad"/>
    <rect id="Rectangle_412" data-name="Rectangle 412" width="1.776" height="1.776" transform="translate(-104.377 54.562) rotate(-65.484)" fill="#38457e"/>
    <rect id="Rectangle_413" data-name="Rectangle 413" width="1.776" height="1.776" transform="translate(-100.935 60.133) rotate(-65.484)" fill="#5eb262"/>
    <rect id="Rectangle_414" data-name="Rectangle 414" width="1.776" height="1.775" transform="matrix(0.416, -0.91, 0.91, 0.416, -102.234, 56.458)" fill="#cbd33d"/>
    <path id="Path_993" data-name="Path 993" d="M-98.667,58.284l.507-1.142-1.125-.507-.524,1.126Z" fill="#334874"/>
    <path id="Path_994" data-name="Path 994" d="M-99.159,54.859l.523-1.142-1.141-.507-.524,1.126Z" fill="#77b64f"/>
    <path id="Path_995" data-name="Path 995" d="M-108.086,50.118l2.474-1.395-1.412-2.474L-109.5,47.66Z" fill="#37b3b9"/>
    <rect id="Rectangle_415" data-name="Rectangle 415" width="2.28" height="2.28" transform="matrix(0.869, -0.494, 0.494, 0.869, -106.897, 51.196)" fill="#77b64f"/>
    <path id="Path_996" data-name="Path 996" d="M-104.249,48.056l1.982-1.126-1.142-1.982-1.982,1.126Z" fill="#334874"/>
    <path id="Path_997" data-name="Path 997" d="M-102.917,50.863l1.538-.872-.888-1.538-1.538.872Z" fill="#3787c7"/>
    <rect id="Rectangle_416" data-name="Rectangle 416" width="1.768" height="1.768" transform="matrix(0.87, -0.493, 0.493, 0.87, -101.791, 45.028)" fill="#77b64f"/>
    <path id="Path_998" data-name="Path 998" d="M-101.395,53.1l1.554-.888-.888-1.538-1.538.888Z" fill="#37b3b9"/>
    <path id="Path_999" data-name="Path 999" d="M-100.285,49.357l1.554-.888-.888-1.538-1.538.888Z" fill="#cbd33d"/>
    <path id="Path_1000" data-name="Path 1000" d="M-99.333,51.37l1.078-.6-.618-1.094-1.094.619Z" fill="#ababad"/>
    <path id="Path_1001" data-name="Path 1001" d="M-97.732,48.31l1.094-.618-.618-1.079-1.094.619Z" fill="#77b64f"/>
    <rect id="Rectangle_417" data-name="Rectangle 417" width="2.839" height="2.838" transform="matrix(0.106, -0.994, 0.994, 0.106, -102.191, 39.268)" fill="#77b64f"/>
    <rect id="Rectangle_418" data-name="Rectangle 418" width="2.283" height="2.283" transform="translate(-102.11 43.087) rotate(-83.893)" fill="#ababad"/>
    <rect id="Rectangle_419" data-name="Rectangle 419" width="2.283" height="2.283" transform="translate(-97.885 39.835) rotate(-83.89)" fill="#37b3b9"/>
    <rect id="Rectangle_420" data-name="Rectangle 420" width="1.776" height="1.776" transform="translate(-98.444 42.879) rotate(-83.891)" fill="#cbd33d"/>
    <rect id="Rectangle_421" data-name="Rectangle 421" width="1.776" height="1.776" transform="translate(-94.299 40.563) rotate(-83.891)" fill="#3787c7"/>
    <rect id="Rectangle_422" data-name="Rectangle 422" width="1.776" height="1.776" transform="translate(-98.495 45.593) rotate(-83.891)" fill="#37b3b9"/>
    <rect id="Rectangle_423" data-name="Rectangle 423" width="1.776" height="1.776" transform="translate(-95.41 43.205) rotate(-83.891)" fill="#77b64f"/>
    <rect id="Rectangle_424" data-name="Rectangle 424" width="1.253" height="1.253" transform="matrix(0.106, -0.994, 0.994, 0.106, -95.832, 45.385)" fill="#334874"/>
    <rect id="Rectangle_425" data-name="Rectangle 425" width="1.253" height="1.253" transform="matrix(0.106, -0.994, 0.994, 0.106, -92.739, 43.853)" fill="#ababad"/>
    <path id="Path_1002" data-name="Path 1002" d="M-79.321,55.684a5.869,5.869,0,0,0-1.126-.492,6.773,6.773,0,0,0-3.108-.222,6.849,6.849,0,0,0-1.348.349,1.153,1.153,0,0,0-.127.048,6.946,6.946,0,0,0-.713.317c-.206.1-.4.222-.6.333a14.552,14.552,0,0,0-1.348.92,29.69,29.69,0,0,1-.142-7.215s.015-.016.015,0c1.079.666.777,2.553.54,3.092a.015.015,0,0,0,.015.016,3.341,3.341,0,0,0,.413-3.758c0-.016,0-.016.016-.016a2.765,2.765,0,0,1,.475.491,2.837,2.837,0,0,1,.6,1.6,5.527,5.527,0,0,1,0,.729c0,.064-.016.111-.016.159,0,.016,0,.016.016.016a3.088,3.088,0,0,0,0-2.823,3.548,3.548,0,0,0-.6-.825l-.238-.237c-.015,0,0-.016.016-.016.08.016.159.047.238.063a2.415,2.415,0,0,1,.6.317,2.45,2.45,0,0,1,.84,1.142,2.5,2.5,0,0,1,.191,1.047c0,.016.015.016.015,0a2.571,2.571,0,0,0-.222-2.125,2.387,2.387,0,0,0-.84-.809,2.448,2.448,0,0,0-.6-.27c-.111-.031-.206-.047-.285-.063-.016,0-.016-.016,0-.016a1.7,1.7,0,0,1,.285-.016,3.42,3.42,0,0,1,.6.048,2.053,2.053,0,0,1,.84.333,1.834,1.834,0,0,1,.571.6c0,.016.016,0,.016,0a1.668,1.668,0,0,0-.587-1.141,2.15,2.15,0,0,0-.84-.444,2.711,2.711,0,0,0-.6-.08,1.976,1.976,0,0,0-.761.143c-.016,0-.016,0-.016-.016a1.328,1.328,0,0,1,.777-.539,2.051,2.051,0,0,1,.6-.079,1.39,1.39,0,0,1,.491.111.016.016,0,0,0,.016-.016,1.76,1.76,0,0,0-.507-.412,1.415,1.415,0,0,0-.6-.191,1.522,1.522,0,0,0-1.459.73h-.015c-.064-.127-.143-.27-.207-.412a5.218,5.218,0,0,1-.333-1.095c0-.015-.015-.015-.015,0a5.333,5.333,0,0,1-.333,1.11,3.317,3.317,0,0,1-.207.413h-.015a1.556,1.556,0,0,0-2.569-.111c0,.016,0,.016.016.016a1.6,1.6,0,0,1,1.871.491c0,.016,0,.016-.016.016a2.211,2.211,0,0,0-2.4.587,1.854,1.854,0,0,0-.4.935c0,.016.016.016.016,0a1.956,1.956,0,0,1,.365-.46,2.5,2.5,0,0,1,1.934-.523c.016,0,.016.016,0,.016a2.53,2.53,0,0,0-1.934,1.554,2.749,2.749,0,0,0-.016,1.729c0,.015.016.015.016,0v-.048a2.581,2.581,0,0,1,1.871-2.521.016.016,0,0,1,.016.016,3.12,3.12,0,0,0-.857,3.869c0,.016.016,0,.016,0a3.219,3.219,0,0,1,1.078-2.981c.016,0,.016,0,.016.015a3.343,3.343,0,0,0,.413,3.759c0,.015.031,0,.015-.016-.222-.539-.523-2.426.54-3.092h.015a28.884,28.884,0,0,1-.142,7.215,11.158,11.158,0,0,0-2.664-1.586,2.708,2.708,0,0,0-.333-.111,7.182,7.182,0,0,0-2.522-.365,6.63,6.63,0,0,0-2.6.65,1.8,1.8,0,0,0-.254.143c-.032.016,0,.048.016.048a1.292,1.292,0,0,1,.238-.064,7.112,7.112,0,0,1,2.6-.254,7.666,7.666,0,0,1,2.522.682,13.526,13.526,0,0,1,3,1.951,33.4,33.4,0,0,1-3,2.569l-.1.047a.723.723,0,0,0-.73-.269.7.7,0,0,0-.523.523.653.653,0,0,0,.143.6,1,1,0,0,0,1.205.174,16.26,16.26,0,0,0,3.314-2.759c.111-.1.222-.206.349-.3.111.1.222.207.333.3.6.555,1.173,1.094,1.681,1.57.206.19.412.364.6.523a6.853,6.853,0,0,0,.841.587,1.112,1.112,0,0,0,1.348-.032c.015-.016.047-.032.063-.048a.785.785,0,0,0,.143-.6.665.665,0,0,0-.206-.349.844.844,0,0,0-.333-.174.722.722,0,0,0-.73.269,2.723,2.723,0,0,1-.285-.174,8.055,8.055,0,0,1-.841-.682c-.19-.175-.4-.349-.6-.539-.413-.381-.873-.793-1.348-1.221.428-.365.888-.7,1.348-1.031.19-.127.4-.27.6-.381.27-.158.555-.317.841-.46a7.627,7.627,0,0,1,1.348-.507,7.216,7.216,0,0,1,3.108-.19,10.047,10.047,0,0,1,1.11.253c.079-.015.1-.047.063-.063" fill="#757d81"/>
    <rect id="Rectangle_426" data-name="Rectangle 426" width="0.84" height="0.84" transform="translate(-128.241 86.59)" fill="#a6a5a7"/>
    <path id="Path_1003" data-name="Path 1003" d="M-71.884,85.622V80.1h-.809v4.71h-3.076V80.1h-.809v4.71h-3.25V80.1h-1.285a4.385,4.385,0,0,0-1.4.206,3.285,3.285,0,0,0-1.063.587,2.678,2.678,0,0,0-.682.888,2.572,2.572,0,0,0-.237,1.094,2.741,2.741,0,0,0,.269,1.237,2.548,2.548,0,0,0,.73.856,2.923,2.923,0,0,0,1.078.492,4.911,4.911,0,0,0,1.284.158Zm-10.434-.951a2.257,2.257,0,0,1-.7-.381,1.538,1.538,0,0,1-.475-.618,1.913,1.913,0,0,1-.175-.825,1.685,1.685,0,0,1,.19-.793,1.913,1.913,0,0,1,.508-.618,2.243,2.243,0,0,1,.713-.4,2.4,2.4,0,0,1,.809-.143h.809v3.9h-.809a2.585,2.585,0,0,1-.872-.127" fill="#a6a5a7"/>
    <rect id="Rectangle_427" data-name="Rectangle 427" width="0.809" height="7.31" transform="translate(-89.327 78.312)" fill="#a6a5a7"/>
    <rect id="Rectangle_428" data-name="Rectangle 428" width="0.84" height="0.84" transform="translate(-80.669 78.312)" fill="#a6a5a7"/>
    <rect id="Rectangle_429" data-name="Rectangle 429" width="0.84" height="0.84" transform="translate(-72.708 86.574)" fill="#a6a5a7"/>
    <rect id="Rectangle_430" data-name="Rectangle 430" width="0.84" height="0.84" transform="translate(-126.814 86.574)" fill="#a6a5a7"/>
    <path id="Path_1004" data-name="Path 1004" d="M-92.515,84.8h-1.332a2.461,2.461,0,0,1-1.126-.206,1.53,1.53,0,0,1-.65-.619,3.362,3.362,0,0,0,.08-.761V80.58h-.809v2.759a1.611,1.611,0,0,1-.381,1.126,1.448,1.448,0,0,1-1.141.428,1.709,1.709,0,0,1-.651-.111,1.787,1.787,0,0,1-.507-.3,1.369,1.369,0,0,1-.333-.46,1.356,1.356,0,0,1-.127-.555V80.58h-.809V83.4a1.506,1.506,0,0,1-.111.634,1.221,1.221,0,0,1-.3.428,1.1,1.1,0,0,1-.444.238,1.827,1.827,0,0,1-.523.079h-1.586v-4.2h-.809v4.2h-4.281l1.427-3.409a8.051,8.051,0,0,0-.7-.539,5.92,5.92,0,0,0-.761-.444,4.847,4.847,0,0,0-.793-.3,3.43,3.43,0,0,0-.793-.111,2.74,2.74,0,0,0-.792.111,8.034,8.034,0,0,0-.793.286,6.171,6.171,0,0,0-.761.444c-.238.174-.46.349-.682.539l1.443,3.409h-2.823V80.057h-1.3a4.193,4.193,0,0,0-1.38.206,3.1,3.1,0,0,0-1.062.587,2.452,2.452,0,0,0-.682.888,2.623,2.623,0,0,0-.238,1.11,2.724,2.724,0,0,0,.27,1.236,2.338,2.338,0,0,0,.729.841,3.2,3.2,0,0,0,1.078.491,4.961,4.961,0,0,0,1.3.159h.491v.238a1.109,1.109,0,0,1-.364.92A1.632,1.632,0,0,1-116.57,87a3.056,3.056,0,0,1-.682-.063,3.973,3.973,0,0,1-.682-.238l-.254.777a6.682,6.682,0,0,0,.825.254,2.873,2.873,0,0,0,.729.079,2.268,2.268,0,0,0,1.729-.571,2.1,2.1,0,0,0,.539-1.522v-.159h12.67a2.142,2.142,0,0,0,1.062-.254,2.2,2.2,0,0,0,.746-.681,1.881,1.881,0,0,0,.808.761,2.444,2.444,0,0,0,1.221.269,2.766,2.766,0,0,0,1.253-.253,1.793,1.793,0,0,0,.793-.777,3.813,3.813,0,0,0,.254.348,1.523,1.523,0,0,0,.38.3,1.88,1.88,0,0,0,.571.206,3.159,3.159,0,0,0,.587.079v.016h2.315v-7.31h-.809Zm-22.691,0h-.825a3.028,3.028,0,0,1-.856-.127,2.154,2.154,0,0,1-.714-.365,1.6,1.6,0,0,1-.476-.6,1.9,1.9,0,0,1-.174-.809,1.785,1.785,0,0,1,.19-.809,1.9,1.9,0,0,1,.492-.618,2.243,2.243,0,0,1,.713-.4,2.419,2.419,0,0,1,.825-.143h.825Zm4.5,0-1.269-3.124a3.325,3.325,0,0,1,.968-.587,2.847,2.847,0,0,1,1.03-.19,2.994,2.994,0,0,1,1.1.222,3.438,3.438,0,0,1,.919.539l-1.268,3.124H-110.7Z" fill="#a6a5a7"/>
    <rect id="Rectangle_431" data-name="Rectangle 431" width="0.84" height="0.84" transform="translate(-131.048 78.312)" fill="#a6a5a7"/>
    <rect id="Rectangle_432" data-name="Rectangle 432" width="0.84" height="0.84" transform="translate(-48.526 78.312)" fill="#a6a5a7"/>
    <rect id="Rectangle_433" data-name="Rectangle 433" width="0.809" height="7.31" transform="translate(-55.757 78.312)" fill="#a6a5a7"/>
    <rect id="Rectangle_434" data-name="Rectangle 434" width="0.84" height="0.84" transform="translate(-82.096 78.312)" fill="#a6a5a7"/>
    <path id="Path_1005" data-name="Path 1005" d="M-120.36,82.4a3.38,3.38,0,0,0-.127-.9,1.739,1.739,0,0,0-.4-.713,2.354,2.354,0,0,0-.73-.54,2.591,2.591,0,0,0-.983-.174h-.6v.809h.713a1.34,1.34,0,0,1,.555.127,1.3,1.3,0,0,1,.444.333,1.345,1.345,0,0,1,.238.475,2.382,2.382,0,0,1,.063.619V84.8h-3.821v.809h4.646Z" fill="#a6a5a7"/>
    <rect id="Rectangle_435" data-name="Rectangle 435" width="0.809" height="7.31" transform="translate(-12.609 78.312)" fill="#a6a5a7"/>
    <rect id="Rectangle_436" data-name="Rectangle 436" width="0.84" height="0.84" transform="translate(-47.099 78.312)" fill="#a6a5a7"/>
    <path id="Path_1006" data-name="Path 1006" d="M-14.972,78.312h-.809V84.8H-18.6a2.828,2.828,0,0,0,.254-1.2,3.149,3.149,0,0,0-.222-1.174,2.791,2.791,0,0,0-.634-.936,3.172,3.172,0,0,0-.936-.634,2.924,2.924,0,0,0-1.173-.222,2.723,2.723,0,0,0-1.142.238,2.907,2.907,0,0,0-.92.634,3.437,3.437,0,0,0-.618.936,3.128,3.128,0,0,0-.222,1.158,2.579,2.579,0,0,0,.063.618,4.875,4.875,0,0,0,.175.571H-26.5a2.828,2.828,0,0,0,.254-1.2,3.153,3.153,0,0,0-.222-1.174,2.787,2.787,0,0,0-.634-.935,3.156,3.156,0,0,0-.936-.635,2.924,2.924,0,0,0-1.173-.222,2.738,2.738,0,0,0-1.142.238,2.907,2.907,0,0,0-.92.634,3.105,3.105,0,0,0-.618.936,3.128,3.128,0,0,0-.222,1.158,2.579,2.579,0,0,0,.063.618,4.817,4.817,0,0,0,.175.571h-2.585V78.28h-.809v6.486h-2.6V83.513A3.262,3.262,0,0,0-38,82.625a1.705,1.705,0,0,0-.381-.713,1.894,1.894,0,0,0-.713-.524,2.655,2.655,0,0,0-1.015-.174h-3.616l1.538-2.934h-.888L-44.641,81.2a1.743,1.743,0,0,0,.126.46,1.83,1.83,0,0,0,.238.365h4.155a1.711,1.711,0,0,1,.666.111,1.4,1.4,0,0,1,.46.317,1.227,1.227,0,0,1,.238.476,2.315,2.315,0,0,1,.063.586v1.253h-7.548v-4.71h-1.284a4.22,4.22,0,0,0-1.38.206,3.28,3.28,0,0,0-1.062.587,2.652,2.652,0,0,0-.682.888,2.558,2.558,0,0,0-.238,1.094,2.741,2.741,0,0,0,.269,1.237,2.574,2.574,0,0,0,.73.857,2.922,2.922,0,0,0,1.078.491,4.919,4.919,0,0,0,1.285.159h16.19a3.193,3.193,0,0,0,.951.682,2.973,2.973,0,0,0,1.19.253,3.156,3.156,0,0,0,1.221-.238,2.82,2.82,0,0,0,.967-.681h3.584a3.148,3.148,0,0,0,.951.681,2.952,2.952,0,0,0,1.189.254,3.157,3.157,0,0,0,1.222-.238,2.81,2.81,0,0,0,.967-.682h4.154V78.312ZM-47.083,84.8h-.809a3.028,3.028,0,0,1-.856-.127,2.245,2.245,0,0,1-.7-.381,1.54,1.54,0,0,1-.476-.618,1.916,1.916,0,0,1-.174-.825,1.673,1.673,0,0,1,.19-.793,1.889,1.889,0,0,1,.507-.618,2.229,2.229,0,0,1,.714-.4,2.4,2.4,0,0,1,.809-.143h.808v3.9Zm19.837-.365a2.228,2.228,0,0,1-.46.682,2.2,2.2,0,0,1-.682.444,2.164,2.164,0,0,1-.856.158,2.016,2.016,0,0,1-.824-.174,2.173,2.173,0,0,1-.666-.46,2.014,2.014,0,0,1-.444-.682,2.062,2.062,0,0,1-.159-.824,2.067,2.067,0,0,1,.159-.825,2.48,2.48,0,0,1,.428-.682,2.1,2.1,0,0,1,.65-.46,2.1,2.1,0,0,1,.84-.174,2.119,2.119,0,0,1,.857.158,2.037,2.037,0,0,1,.681.445,2.057,2.057,0,0,1,.46.681,2.169,2.169,0,0,1,.159.857,1.685,1.685,0,0,1-.143.856m7.913,0a2.246,2.246,0,0,1-.46.682,2.2,2.2,0,0,1-.682.444,2.111,2.111,0,0,1-.856.158,2.024,2.024,0,0,1-.825-.174,2.2,2.2,0,0,1-.666-.46,2.029,2.029,0,0,1-.444-.682,2.061,2.061,0,0,1-.158-.824,2.066,2.066,0,0,1,.158-.825,2.483,2.483,0,0,1,.429-.682,2.1,2.1,0,0,1,.65-.46,2.092,2.092,0,0,1,.84-.174,2.111,2.111,0,0,1,.856.158,2.031,2.031,0,0,1,.682.445,2.057,2.057,0,0,1,.46.681,2.169,2.169,0,0,1,.159.857,1.7,1.7,0,0,1-.143.856" fill="#a6a5a7"/>
    <path id="Path_1007" data-name="Path 1007" d="M-132.776,85.448a4.911,4.911,0,0,0,1.284.158h5.344V80.088h-.809V84.8h-3.235v-4.71h-1.284a4.2,4.2,0,0,0-1.38.206,3.28,3.28,0,0,0-1.062.587,2.678,2.678,0,0,0-.682.888,2.569,2.569,0,0,0-.238,1.094,2.728,2.728,0,0,0,.27,1.237,2.556,2.556,0,0,0,.729.856,2.975,2.975,0,0,0,1.063.492m-1.253-2.585a1.673,1.673,0,0,1,.19-.793,2.065,2.065,0,0,1,.492-.618,2.226,2.226,0,0,1,.713-.4,2.426,2.426,0,0,1,.809-.143h.809v3.9h-.809a3.028,3.028,0,0,1-.856-.126,2.266,2.266,0,0,1-.7-.381,1.554,1.554,0,0,1-.476-.618,1.806,1.806,0,0,1-.174-.825" fill="#a6a5a7"/>
    <rect id="Rectangle_437" data-name="Rectangle 437" width="0.84" height="0.84" transform="translate(-75.69 86.574)" fill="#a6a5a7"/>
    <rect id="Rectangle_438" data-name="Rectangle 438" width="0.84" height="0.84" transform="translate(-77.117 86.574)" fill="#a6a5a7"/>
    <path id="Path_1008" data-name="Path 1008" d="M-68.7,86.653a4.582,4.582,0,0,0,.08-.856v-.175h10.5v-7.31h-.809V84.8H-62.4l1.427-3.409a8.058,8.058,0,0,0-.7-.54,6.111,6.111,0,0,0-.761-.444,4.843,4.843,0,0,0-.793-.3A3.426,3.426,0,0,0-64,79.993a2.746,2.746,0,0,0-.793.111,7.964,7.964,0,0,0-.793.286,5.2,5.2,0,0,0-.761.444c-.238.174-.46.348-.682.539l1.443,3.409h-3.044v-4.71h-.809v5.693a5.629,5.629,0,0,1-.032.587,1.057,1.057,0,0,1-.127.381.492.492,0,0,1-.237.206.879.879,0,0,1-.381.063.645.645,0,0,1-.19-.016c-.048,0-.127-.031-.222-.047l-.206.777a2.43,2.43,0,0,0,.666.095,1.787,1.787,0,0,0,.745-.143,1.244,1.244,0,0,0,.491-.412,1.8,1.8,0,0,0,.238-.6m2.7-4.979a3.287,3.287,0,0,1,.967-.587A2.891,2.891,0,0,1-64,80.9a2.989,2.989,0,0,1,1.094.222,3.445,3.445,0,0,1,.92.539l-1.269,3.124h-1.459Z" fill="#a6a5a7"/>
    <rect id="Rectangle_439" data-name="Rectangle 439" width="0.84" height="0.84" transform="translate(-132.475 78.312)" fill="#a6a5a7"/>
    <path id="Path_1009" data-name="Path 1009" d="M-129,90.966h-1.253l-2.775,2.918V90.966h-1.015v5.82h1.015v-1.7l.9-.92,2,2.617h1.237l-2.521-3.315Z" fill="#a6a5a7"/>
    <rect id="Rectangle_440" data-name="Rectangle 440" width="1.031" height="5.82" transform="translate(-127.955 90.966)" fill="#a6a5a7"/>
    <path id="Path_1010" data-name="Path 1010" d="M-121.28,94.994l-3.124-4.028h-.951v5.82h1.015V92.647l3.2,4.139h.856v-5.82h-1Z" fill="#a6a5a7"/>
    <path id="Path_1011" data-name="Path 1011" d="M-116.031,94.423h1.491v1.094a2.375,2.375,0,0,1-1.412.444,1.949,1.949,0,0,1-1.982-2.077v-.016a1.96,1.96,0,0,1,1.887-2.046,2.275,2.275,0,0,1,1.633.619l.651-.777A3.145,3.145,0,0,0-116,90.871a2.958,2.958,0,0,0-3,3.013V93.9a2.9,2.9,0,0,0,3.028,3,3.7,3.7,0,0,0,2.427-.9V93.551h-2.474v.872Z" fill="#a6a5a7"/>
    <path id="Path_1012" data-name="Path 1012" d="M-109.974,90.966h-2.172v5.82h2.172a2.913,2.913,0,0,0,3.092-2.9v-.016a2.894,2.894,0,0,0-3.092-2.9m2.03,2.918a1.9,1.9,0,0,1-2.03,1.966h-1.141V91.9h1.141a1.919,1.919,0,0,1,2.03,1.982" fill="#a6a5a7"/>
    <path id="Path_1013" data-name="Path 1013" d="M-102.853,90.871a2.983,2.983,0,0,0-3.061,3.013V93.9a2.966,2.966,0,0,0,3.045,3,2.983,2.983,0,0,0,3.06-3.013v-.016a2.975,2.975,0,0,0-3.044-3m1.95,3.013a1.965,1.965,0,0,1-1.966,2.046,1.991,1.991,0,0,1-1.982-2.062v-.016a1.964,1.964,0,0,1,1.966-2.045,1.991,1.991,0,0,1,1.982,2.061Z" fill="#a6a5a7"/>
    <path id="Path_1014" data-name="Path 1014" d="M-95.686,93.71l-1.776-2.743h-1.094v5.819h1.015V92.632l1.823,2.727h.032l1.839-2.743v4.17h1.015V90.967H-93.91Z" fill="#a6a5a7"/>
    <path id="Path_1015" data-name="Path 1015" d="M-86.029,90.871a2.983,2.983,0,0,0-3.061,3.013V93.9a2.966,2.966,0,0,0,3.045,3,2.983,2.983,0,0,0,3.06-3.013v-.016a2.956,2.956,0,0,0-3.044-3m1.966,3.013a1.965,1.965,0,0,1-1.966,2.046,1.991,1.991,0,0,1-1.982-2.062v-.016a1.964,1.964,0,0,1,1.966-2.045,1.991,1.991,0,0,1,1.982,2.061Z" fill="#a6a5a7"/>
    <path id="Path_1016" data-name="Path 1016" d="M-81.716,96.786H-80.7V94.407h2.949v-.919H-80.7V91.9h3.314v-.936h-4.329Z" fill="#a6a5a7"/>
    <path id="Path_1017" data-name="Path 1017" d="M-71.519,93.408c-1.11-.27-1.38-.46-1.38-.92v-.016c0-.38.349-.7.952-.7a2.617,2.617,0,0,1,1.586.6l.555-.777a3.22,3.22,0,0,0-2.109-.729,1.783,1.783,0,0,0-2,1.681v.016c0,1.078.7,1.443,1.934,1.728,1.078.254,1.316.476,1.316.888V95.2c0,.444-.4.729-1.03.729a2.632,2.632,0,0,1-1.84-.761l-.618.73a3.612,3.612,0,0,0,2.426.935c1.221,0,2.077-.65,2.077-1.744v-.016c.016-.92-.634-1.364-1.871-1.665" fill="#a6a5a7"/>
    <path id="Path_1018" data-name="Path 1018" d="M-66.509,90.919l-2.569,5.851h1.047l.6-1.411h2.76l.586,1.411H-63l-2.569-5.851Zm-.539,3.552,1-2.331,1.015,2.331Z" fill="#a6a5a7"/>
    <path id="Path_1019" data-name="Path 1019" d="M-58.421,94.312c0,1.078-.555,1.617-1.459,1.617-.92,0-1.475-.586-1.475-1.665V90.95h-1.03V94.3a2.291,2.291,0,0,0,2.473,2.553,2.322,2.322,0,0,0,2.506-2.6v-3.3h-1.031v3.362Z" fill="#a6a5a7"/>
    <path id="Path_1020" data-name="Path 1020" d="M-53.728,90.966H-55.9v5.82h2.172a2.913,2.913,0,0,0,3.092-2.9v-.016a2.9,2.9,0,0,0-3.092-2.9m2.014,2.918a1.9,1.9,0,0,1-2.03,1.966h-1.141V91.9h1.141a1.919,1.919,0,0,1,2.03,1.982" fill="#a6a5a7"/>
    <rect id="Rectangle_441" data-name="Rectangle 441" width="1.031" height="5.82" transform="translate(-49.335 90.966)" fill="#a6a5a7"/>
    <path id="Path_1021" data-name="Path 1021" d="M-42.2,90.919l-2.569,5.851h1.047l.6-1.411h2.76l.586,1.411h1.079l-2.569-5.851Zm-.539,3.552,1-2.331,1.015,2.331Z" fill="#a6a5a7"/>
    <path id="Path_1022" data-name="Path 1022" d="M-32.955,92.821v-.016a1.776,1.776,0,0,0-.475-1.252,2.37,2.37,0,0,0-1.681-.587h-2.6v5.82h1.031v-2.03H-35.4l1.427,2.03h1.206l-1.57-2.205a1.749,1.749,0,0,0,1.379-1.76M-36.7,93.852V91.9h1.491c.761,0,1.205.348,1.205.967v.016c0,.586-.46.967-1.205.967Z" fill="#a6a5a7"/>
    <path id="Path_1023" data-name="Path 1023" d="M-29.45,90.919l-2.569,5.851h1.047l.6-1.411h2.76l.586,1.411h1.079l-2.569-5.851Zm-.539,3.552,1-2.331,1.015,2.331Z" fill="#a6a5a7"/>
    <path id="Path_1024" data-name="Path 1024" d="M-21.284,93.757a1.391,1.391,0,0,0,.825-1.3v-.016a1.256,1.256,0,0,0-.4-.968,2.1,2.1,0,0,0-1.522-.523h-2.616v5.82H-22.3c1.3,0,2.157-.555,2.157-1.6v-.016c.016-.777-.46-1.157-1.142-1.395m-2.68-1.887h1.475c.65,0,1.031.285,1.031.745v.016c0,.539-.444.793-1.094.793h-1.4V91.87Zm2.823,3.2c0,.523-.428.793-1.126.793h-1.7V94.28h1.618c.809,0,1.2.286,1.2.777Z" fill="#a6a5a7"/>
    <rect id="Rectangle_442" data-name="Rectangle 442" width="1.031" height="5.82" transform="translate(-18.857 90.966)" fill="#a6a5a7"/>
    <path id="Path_1025" data-name="Path 1025" d="M-13.338,90.919h-.952l-2.569,5.867h1.047l.6-1.411h2.76l.586,1.411h1.079Zm-1.491,3.552,1-2.331,1.015,2.331Z" fill="#a6a5a7"/>
  </g>
</svg>
