<svg xmlns="http://www.w3.org/2000/svg" width="257.415" height="172.984" viewBox="0 0 257.415 172.984">
  <g id="HailRegionLogo" transform="translate(-838.585 -126.016)">
    <path id="Path_878" data-name="Path 878" d="M914.608,280.005a3.868,3.868,0,0,1-.762,1.321,6.414,6.414,0,0,1-5.42,2.466,6.73,6.73,0,0,1-4.886-2.092,7.106,7.106,0,0,1-1.625-4.381v-1.783h2.17v.815a7.289,7.289,0,0,0,.5,2.884,4.354,4.354,0,0,0,3.989,2.41,4.553,4.553,0,0,0,2.6-.781,4.005,4.005,0,0,0,1.182-1.343,9.64,9.64,0,0,0,.477-3.5v-6.164h2.193v8.267h2.954v1.882Zm5.755,0h-4.545v-1.882h4.545Zm3.677,0h-4.545v-1.882h4.545Zm2.836-6.615h2.239V277.7a2.044,2.044,0,0,1-1.205,2.014,3.191,3.191,0,0,1-1.2.286h-3.375v-1.882h2.409q1.09.033,1.136-.892V273.39Zm2.886-1.508v.693h-3.227l.012-.693h.613a1.118,1.118,0,0,1-.147-.419,1.482,1.482,0,0,1,.034-.55,1.174,1.174,0,0,1,.534-.749,1.6,1.6,0,0,1,.92-.2,2.215,2.215,0,0,1,.511.088.907.907,0,0,1,.375.242,1.361,1.361,0,0,1,.387.474l-.6.341a1.166,1.166,0,0,0-.432-.418.779.779,0,0,0-.375-.066.658.658,0,0,0-.455.187.7.7,0,0,0-.193.616.766.766,0,0,0,.261.452Zm1.111-2.3h2.341v6.869a1.444,1.444,0,0,0,1.477,1.662h1.443v1.893h-2.579a2.4,2.4,0,0,1-2.352-1.354,3.369,3.369,0,0,1-.33-1.343Zm4.961,10.424v-1.893h8.2a3.8,3.8,0,0,0-.261-1.288,2.621,2.621,0,0,0-.773-1.079,3.447,3.447,0,0,0-2.147-.825,3.038,3.038,0,0,0-2.5,1.321l-1.625-1.332a8.429,8.429,0,0,1,.818-.848,4.773,4.773,0,0,1,2.648-1.145,5.949,5.949,0,0,1,3.272.628,5.55,5.55,0,0,1,2.932,4.568l.011,1.893Zm27.528,0h-1.693a4.188,4.188,0,0,1-2.227-.55,3.324,3.324,0,0,1-1.273-1.42c-.416.249-.72.422-.909.517a3.4,3.4,0,0,1-1.636.3,5.185,5.185,0,0,1-2.1-.4,2.673,2.673,0,0,1-1.358-1.332,3.9,3.9,0,0,1-.409-1.794,3.737,3.737,0,0,1,.171-1.156,3.8,3.8,0,0,1,1.057-1.728,6.389,6.389,0,0,1,1.352-.9,6.823,6.823,0,0,1,2.716-.429h3.409l.022,4.48a6.318,6.318,0,0,0-.011,1.057q.137,1.408,1.329,1.475h1.557Zm-5.284-4.909q0-.254-.022-2.587a8.933,8.933,0,0,0-1.762.066,2.229,2.229,0,0,0-1.716,1.123,2.946,2.946,0,0,0-.295,1.31,2.165,2.165,0,0,0,1.023,1.948,1.515,1.515,0,0,0,1.056.3,1.873,1.873,0,0,0,1.387-.88,2.338,2.338,0,0,0,.329-1.277m-3.465-6.44h1.9v1.508h-1.9Zm3.159,0h1.9v1.508h-1.9Zm8.91,11.349h-4.545v-1.882h4.545Zm-.743-1.893h2.693a4.07,4.07,0,0,1-.523-1.871,3.494,3.494,0,0,1,.557-1.927,3.75,3.75,0,0,1,1.886-1.442,6.218,6.218,0,0,1,1.75-.253,4.528,4.528,0,0,1,2.238.55,3.462,3.462,0,0,1,1.875,2.5,3.912,3.912,0,0,1,.08.771,3.324,3.324,0,0,1-.443,1.684h1.92v1.882H972.9q-.306.022-.648.022h-6.317Zm3.568-8.443h1.9v1.508h-1.9Zm.852,6.792a2.414,2.414,0,0,0,.045.462,1.628,1.628,0,0,0,1.784,1.431,2.235,2.235,0,0,0,.4-.033,1.674,1.674,0,0,0,.875-.506,2.009,2.009,0,0,0,.6-1.508c0-.088,0-.184-.011-.287a1.783,1.783,0,0,0-1.8-1.684,1.6,1.6,0,0,0-1.329.6,2.219,2.219,0,0,0-.568,1.53m2.307-6.792h1.9v1.508h-1.9Zm4.875,10.336v-1.893h1.977v-8.52h2.239v5.427a5.794,5.794,0,0,1,3.136-2.213,6.793,6.793,0,0,1,1.75-.286,5.846,5.846,0,0,1,3.42.859,4.609,4.609,0,0,1,1.727,2.212,7.876,7.876,0,0,1,.478,2.532h1.727v1.882Zm5.557-3.918a8.9,8.9,0,0,0-1.444,2H989.7q.045-.473.045-.771a3.238,3.238,0,0,0-1.011-2.146,3.076,3.076,0,0,0-.9-.6,3.23,3.23,0,0,0-1.17-.22,4.379,4.379,0,0,0-2.239.672,5.782,5.782,0,0,0-1.329,1.057m12.746-2.7H998.4v3.643q-.012.87-.387,1.079l2.012.011v1.882h-7.045v-1.893h1.386q1.363.1,1.477-1.123Zm.148-2.378h1.9v1.508h-1.9Zm7.759,8.993h-4.545v-1.882h4.545Zm9.029-1.882a2.865,2.865,0,0,1-.818,1.97,4.524,4.524,0,0,1-3.284,1.244,3.363,3.363,0,0,1-2.83-1.244.245.245,0,0,0-.238-.088h-2.591v-1.882h2a3.686,3.686,0,0,1,.227-1.244,3.579,3.579,0,0,1,.693-1.189,3.846,3.846,0,0,1,2.932-1.134h.113a4.186,4.186,0,0,1,2.989,1.277,3.632,3.632,0,0,1,.807,2.29m-3.989-2.1a1.619,1.619,0,0,0-.852.309,1.57,1.57,0,0,0-.534.583,2,2,0,0,0-.239.969,2.367,2.367,0,0,0,.193.913,1.548,1.548,0,0,0,1.569.947,1.972,1.972,0,0,0,.6-.077,1.427,1.427,0,0,0,.613-.484,1.875,1.875,0,0,0,.455-1.244,2.24,2.24,0,0,0-.091-.617q-.443-1.32-1.5-1.321a1.2,1.2,0,0,0-.216.022m20.35,3.985h-1.693a4.186,4.186,0,0,1-2.227-.55,3.317,3.317,0,0,1-1.273-1.42q-.625.373-.909.517a3.4,3.4,0,0,1-1.636.3,5.181,5.181,0,0,1-2.1-.4,2.673,2.673,0,0,1-1.358-1.332,3.892,3.892,0,0,1-.409-1.794,3.737,3.737,0,0,1,.171-1.156,3.811,3.811,0,0,1,1.056-1.728,6.4,6.4,0,0,1,1.353-.9,6.821,6.821,0,0,1,2.715-.429h3.409l.023,4.48a6.053,6.053,0,0,0-.011,1.057q.136,1.408,1.329,1.475h1.557Zm-5.284-4.909q0-.254-.023-2.587a8.922,8.922,0,0,0-1.761.066,2.229,2.229,0,0,0-1.716,1.123,2.946,2.946,0,0,0-.295,1.31,2.161,2.161,0,0,0,1.022,1.948,1.518,1.518,0,0,0,1.057.3,1.87,1.87,0,0,0,1.386-.88,2.329,2.329,0,0,0,.33-1.277m-3.466-6.44h1.9v1.508h-1.9Zm3.159,0h1.9v1.508h-1.9Zm8.91,11.349h-4.545v-1.882h4.545Zm3.677,0h-4.545v-1.882h4.545Zm2.132-6.615h2.239V277.7a2.044,2.044,0,0,1-1.205,2.014,3.192,3.192,0,0,1-1.2.286h-3.375v-1.882h2.409q1.09.033,1.136-.892Zm.1-2.378h1.9v1.508h-1.9Zm3.892-1.431h2.341v6.869a1.443,1.443,0,0,0,1.477,1.662h1.443v1.893h-2.579a2.4,2.4,0,0,1-2.352-1.354,3.368,3.368,0,0,1-.33-1.343Zm14.461,8.542a2.861,2.861,0,0,1-.819,1.97,4.521,4.521,0,0,1-3.284,1.244,3.362,3.362,0,0,1-2.829-1.244.246.246,0,0,0-.239-.088h-2.59v-1.882h2a3.686,3.686,0,0,1,.227-1.244,3.579,3.579,0,0,1,.693-1.189,3.846,3.846,0,0,1,2.932-1.134h.113a4.186,4.186,0,0,1,2.989,1.277,3.643,3.643,0,0,1,.807,2.29m-3.989-2.1a1.619,1.619,0,0,0-.852.309,1.571,1.571,0,0,0-.534.583,2,2,0,0,0-.239.969,2.348,2.348,0,0,0,.193.913,1.548,1.548,0,0,0,1.568.947,1.974,1.974,0,0,0,.6-.077,1.427,1.427,0,0,0,.613-.484,1.875,1.875,0,0,0,.455-1.244,2.279,2.279,0,0,0-.091-.617q-.443-1.32-1.5-1.321a1.2,1.2,0,0,0-.216.022m8.106-7.661v.694h-3.227l.011-.694h.614a1.1,1.1,0,0,1-.148-.418,1.51,1.51,0,0,1,.034-.551,1.179,1.179,0,0,1,.534-.748,1.592,1.592,0,0,1,.921-.2,2.223,2.223,0,0,1,.511.088.917.917,0,0,1,.375.242,1.353,1.353,0,0,1,.386.473l-.6.342a1.153,1.153,0,0,0-.432-.419.8.8,0,0,0-.375-.066.66.66,0,0,0-.454.187.7.7,0,0,0-.193.617.761.761,0,0,0,.261.451Zm-2.909,1.255,2.409-.011v10.391l-2.432.022Z" fill="#fff"/>
    <path id="Path_879" data-name="Path 879" d="M840.849,298.555h-2.264V287.794h2.264v4.318h4.773v-4.318h2.3v10.761h-2.3V293.9h-4.773Z" fill="#fff"/>
    <path id="Path_880" data-name="Path 880" d="M853.5,287.794h1.931l4.089,10.761h-2.334q-.3-.849-.737-2.244h-3.984q-.246.765-.755,2.244h-2.3Zm.983,2.907q-.492,1.343-1.351,3.774H855.8q-.825-2.346-1.316-3.774" fill="#fff"/>
    <rect id="Rectangle_336" data-name="Rectangle 336" width="2.264" height="10.761" transform="translate(861.013 287.794)" fill="#fff"/>
    <path id="Path_881" data-name="Path 881" d="M866.084,298.555V287.794h2.3v8.976h4.159v1.785Z" fill="#fff"/>
    <path id="Path_882" data-name="Path 882" d="M878.421,298.555V287.811q.246-.051,1.387-.136t1.737-.085q4.246,0,4.247,3.366a3.9,3.9,0,0,1-1.527,3.094q.631,1.412,2.159,4.505h-2.317q-.859-1.818-1.86-3.91a3.155,3.155,0,0,1-.527.034,2.311,2.311,0,0,1-1-.136v4.012Zm2.3-9.061v3.247a4.073,4.073,0,0,0,1.141.153q1.509,0,1.509-1.938a1.389,1.389,0,0,0-1.562-1.581,2.814,2.814,0,0,0-1.088.119" fill="#fff"/>
    <path id="Path_883" data-name="Path 883" d="M887.354,287.794h7.265v1.785h-4.966v2.533h4.142V293.9h-4.142v2.873h5.2v1.785h-7.494Z" fill="#fff"/>
    <path id="Path_884" data-name="Path 884" d="M904.727,297.654a8.387,8.387,0,0,1-3.984,1.105,4.417,4.417,0,0,1-3.948-1.989,6.247,6.247,0,0,1-.983-3.57,5.818,5.818,0,0,1,1.474-4.08,4.551,4.551,0,0,1,3.528-1.53,5.066,5.066,0,0,1,3.492,1.377l-.9,1.411a4.3,4.3,0,0,0-2.457-.885,2.356,2.356,0,0,0-1.974,1.072,4.466,4.466,0,0,0-.781,2.7,3.762,3.762,0,0,0,1,2.754,2.684,2.684,0,0,0,2,.85,3.976,3.976,0,0,0,1.351-.221v-2.227h-1.983v-1.938h4.159Z" fill="#fff"/>
    <rect id="Rectangle_337" data-name="Rectangle 337" width="2.264" height="10.761" transform="translate(906.587 287.794)" fill="#fff"/>
    <path id="Path_885" data-name="Path 885" d="M915.994,287.59a4.54,4.54,0,0,1,3.949,1.972,6.336,6.336,0,0,1,1.088,3.74,5.643,5.643,0,0,1-1.422,4.029,4.742,4.742,0,0,1-3.615,1.428,4.6,4.6,0,0,1-3.949-1.836,5.851,5.851,0,0,1-1.088-3.621,6.071,6.071,0,0,1,1.422-4.165,4.561,4.561,0,0,1,3.615-1.547m0,9.3a2.277,2.277,0,0,0,1.948-.927,4.423,4.423,0,0,0,.684-2.66,4.836,4.836,0,0,0-.754-2.89,2.4,2.4,0,0,0-3.835.085,4.887,4.887,0,0,0-.693,2.8q0,3.588,2.65,3.587" fill="#fff"/>
    <path id="Path_886" data-name="Path 886" d="M925.4,291.347v7.208h-2.264V287.794h1.913q2.808,3.537,5.581,7.429v-7.429h2.3v10.761h-1.966q-1.65-1.887-5.563-7.208" fill="#fff"/>
    <path id="Path_887" data-name="Path 887" d="M945.862,296.005q.983-3.484,2.632-8.211h3.335v10.761h-2.317v-8.738a89.425,89.425,0,0,1-2.7,8.738H944.9q-1.984-5.83-2.685-8.653v8.653h-2.264V287.794h3.194q1.648,4.352,2.72,8.211" fill="#fff"/>
    <path id="Path_888" data-name="Path 888" d="M963.2,294.033q0,4.727-4.282,4.726t-4.282-4.726v-6.239h2.316v6.545q0,2.55,1.966,2.55,2,0,2-2.55v-6.545H963.2Z" fill="#fff"/>
    <path id="Path_889" data-name="Path 889" d="M968.273,291.347v7.208h-2.265V287.794h1.914q2.808,3.537,5.581,7.429v-7.429h2.3v10.761h-1.966q-1.648-1.887-5.563-7.208" fill="#fff"/>
    <rect id="Rectangle_338" data-name="Rectangle 338" width="2.264" height="10.761" transform="translate(978.609 287.794)" fill="#fff"/>
    <path id="Path_890" data-name="Path 890" d="M991.613,297.348a5.133,5.133,0,0,1-7.634-.629,5.931,5.931,0,0,1-1-3.434,6.048,6.048,0,0,1,1.368-4.131,4.7,4.7,0,0,1,3.756-1.564,5.329,5.329,0,0,1,3.37,1.377l-.9,1.411a4.129,4.129,0,0,0-2.3-.885,2.531,2.531,0,0,0-2.229,1.174,4.558,4.558,0,0,0-.685,2.618,3.82,3.82,0,0,0,.808,2.448,2.8,2.8,0,0,0,2.3,1.071,4.485,4.485,0,0,0,2.247-.8Z" fill="#fff"/>
    <rect id="Rectangle_339" data-name="Rectangle 339" width="2.264" height="10.761" transform="translate(993.718 287.794)" fill="#fff"/>
    <path id="Path_891" data-name="Path 891" d="M998.79,298.555V287.811q.246-.051,1.387-.136t1.737-.085q4.246,0,4.247,3.366a3.4,3.4,0,0,1-1.474,3.06,4.044,4.044,0,0,1-2.317.663,3.393,3.393,0,0,1-1.281-.136v4.012Zm2.3-9.061v3.247a3.283,3.283,0,0,0,1.141.17,1.365,1.365,0,0,0,1.106-.484,2.03,2.03,0,0,0,.4-1.335q0-1.718-1.562-1.717a2.817,2.817,0,0,0-1.088.119" fill="#fff"/>
    <path id="Path_892" data-name="Path 892" d="M1011.039,287.794h1.931l4.088,10.761h-2.333q-.3-.849-.737-2.244H1010q-.246.765-.755,2.244h-2.3Zm.983,2.907q-.492,1.343-1.351,3.774h2.667q-.825-2.346-1.316-3.774" fill="#fff"/>
    <path id="Path_893" data-name="Path 893" d="M1018.551,298.555V287.794h2.3v8.976h4.159v1.785Z" fill="#fff"/>
    <rect id="Rectangle_340" data-name="Rectangle 340" width="2.264" height="10.761" transform="translate(1026.676 287.794)" fill="#fff"/>
    <g id="Group_422" data-name="Group 422">
      <path id="Path_894" data-name="Path 894" d="M1033.818,289.579h-3.212v-1.785h8.986v1.785h-3.458v8.976h-2.316Z" fill="#fff"/>
      <path id="Path_895" data-name="Path 895" d="M1039.943,287.794h2.474q1.228,2.415,2.492,4.828l2.44-4.828h2.474l-3.773,6.511v4.25h-2.3V294.3q-2-3.4-3.808-6.511" fill="#fff"/>
      <path id="Path_896" data-name="Path 896" d="M907.914,243.039h39.729L927.752,209.83Z" fill="#fff"/>
      <path id="Path_897" data-name="Path 897" d="M970.347,208.308H930.615l19.894,33.206Z" fill="#fff"/>
      <path id="Path_898" data-name="Path 898" d="M970.347,205.258H930.615l19.894-33.209Z" fill="#fff"/>
      <path id="Path_899" data-name="Path 899" d="M839.806,281.253h39.729l-19.893-33.206Z" fill="#fff"/>
      <path id="Path_900" data-name="Path 900" d="M902.237,246.523H862.508L882.4,279.729Z" fill="#fff"/>
      <path id="Path_901" data-name="Path 901" d="M902.237,243.473H862.508L882.4,210.267Z" fill="#fff"/>
      <path id="Path_902" data-name="Path 902" d="M924.94,208.308H885.211L905.1,241.514Z" fill="#fff"/>
      <path id="Path_903" data-name="Path 903" d="M987.937,260.677h39.729l-19.893-33.209Z" fill="#fff"/>
      <path id="Path_904" data-name="Path 904" d="M982.261,261.111H942.532l19.889-33.206Z" fill="#fff"/>
      <path id="Path_905" data-name="Path 905" d="M1096,299h-39.732l19.9-33.206Z" fill="#fff"/>
      <path id="Path_906" data-name="Path 906" d="M1004.963,225.945H965.234l19.893,33.206Z" fill="#fff"/>
      <path id="Path_907" data-name="Path 907" d="M1033.37,260.677H1073.1l-19.891-33.209Z" fill="#fff"/>
      <path id="Path_908" data-name="Path 908" d="M1050.4,225.945h-39.729l19.893,33.206Z" fill="#fff"/>
      <path id="Path_909" data-name="Path 909" d="M924.94,205.258H885.211L905.1,172.049Z" fill="#fff"/>
      <path id="Path_910" data-name="Path 910" d="M947.279,170.092H907.55L927.441,203.3Z" fill="#fff"/>
      <path id="Path_911" data-name="Path 911" d="M947.279,167.042H907.55l19.891-33.206Z" fill="#fff"/>
      <path id="Path_912" data-name="Path 912" d="M1050.369,223.115H1010.64l19.895-33.206Z" fill="#fff"/>
      <path id="Path_913" data-name="Path 913" d="M1004.963,223.115H965.234l19.893-33.206Z" fill="#fff"/>
      <path id="Path_914" data-name="Path 914" d="M1007.464,221.153l19.838-33.2H987.57Z" fill="#fff"/>
      <path id="Path_915" data-name="Path 915" d="M1027.3,184.9H987.57l19.894-33.209Z" fill="#fff"/>
      <path id="Path_916" data-name="Path 916" d="M965.947,138.42a1.776,1.776,0,0,1,.135,1.888c0-.269.139-.54-.135-.673-.142,0-.142.133-.142.269a.7.7,0,0,0-.278-.54,6.523,6.523,0,0,0-.277,2.294c-.278-.132,0-.676-.278-.538-.418.13-.142.805,0,1.213a6.533,6.533,0,0,1-.281-5.8,12.465,12.465,0,0,1,2.505-2.969c.14-.133.418-.536,0-.536-.418-.133-.694.27-.833.674-.142-.138-.142-.138-.281-.271-.135.4-.416.81-.555,1.216,0-.138,0-.541-.14-.541-.415.135-.415.809-.557,1.213,0-.135,0-.539-.139-.4-.416.269-.416.946-.553,1.482,0-.135.137-.536-.142-.536-.416.133-.276.672-.276,1.076a.466.466,0,0,0-.14-.269c-.42.407-.278.941-.278,1.347-.279-.136-.142-.539-.279-.539-.418.4-.279.943-.418,1.484-.141-.268.139-.674-.141-.945a4.224,4.224,0,0,0-.416,1.215c-.14-.4.139-.811-.14-1.08-.278.4,0,.945-.139,1.349a5.991,5.991,0,0,1,.139-3.505,9.944,9.944,0,0,1,.972-1.617,7.223,7.223,0,0,1,1.534-1.349c.836-.675,1.949-.808,2.645-1.618-.281-.27-.7.134-.977-.133-.135.133-.135.133-.277.267,0-.134,0-.267-.139-.267a.734.734,0,0,0-.557.267c0-.134,0-.267-.137-.267-.281,0-.418.267-.558.4a.463.463,0,0,0-.139-.269c-.137.134-.555.134-.555.54l-.281-.271a.7.7,0,0,0-.279.541c0-.138,0-.27-.137-.27a.679.679,0,0,0-.279.538l-.139-.135a1.866,1.866,0,0,0-.281.81.461.461,0,0,0-.137-.268c-.279.268-.139.669-.279.94a2.874,2.874,0,0,1,1.949-3.505,6.124,6.124,0,0,1,4.87-.136.457.457,0,0,0,.137-.268c-.137-.4-.553-1.213-1.11-.674a.486.486,0,0,1,.137-.4c-.277-.408-.7.133-.973,0l.141-.137c-.281-.406-.557.137-.838,0l.142-.133c0-.138-.142-.138-.281-.138-.135.138-.555.138-.555.541,0-.133.139-.541-.14-.541-.415.138-.557.677-.833.945a1.089,1.089,0,0,1,.555-1.347,4.46,4.46,0,0,1,3.9-.541,3.208,3.208,0,0,1,1.665,1.62,6.529,6.529,0,0,0,.558-1.753.485.485,0,0,0,.139.4c.281-.54.139-1.216.42-1.755.279.539.135,1.215.414,1.755a.481.481,0,0,0,.141-.4,6.425,6.425,0,0,0,.558,1.753,3.213,3.213,0,0,1,2.225-1.753c1.532-.271,4.036.133,3.9,2.021-.278-.268-.418-.807-.838-.945-.276,0-.135.408-.135.541,0-.4-.42-.4-.557-.541s-.279,0-.279.138.14.133.14.27c-.279-.137-.558-.408-.834-.137.139,0,.139.137.139.27a2.045,2.045,0,0,0-.836-.27c-.279.137.142.406,0,.539-.137-.269-.418-.133-.555-.133-.279.268-.836,1.075-.7,1.075a7.532,7.532,0,0,1,5.153.136,3.551,3.551,0,0,1,1.67,1.214,4.218,4.218,0,0,1,.279,2.291c-.279-.271,0-.672-.279-.94a.459.459,0,0,0-.14.268c0-.541-.417-.81-.7-1.213-.137,0-.137.132-.137.27a.694.694,0,0,0-.281-.541l-.277.271c0-.406-.418-.406-.557-.54a.463.463,0,0,0-.139.269l-.418-.4c-.277,0-.416.267-.7,0-.141-.137-.278,0-.278.267l-.279-.267c-.279.267-.7-.137-.973.133,1.252,1.078,3.061,1.485,4.173,2.967a5.82,5.82,0,0,1,1.113,5.122c-.137-.4.141-.945-.137-1.349-.279.269,0,.675-.14,1.08a4.168,4.168,0,0,0-.418-1.215c-.278.271-.141.677-.141.945-.137-.541,0-1.081-.416-1.484-.137,0,0,.4-.277.539,0-.406.14-.94-.278-1.347a.466.466,0,0,0-.14.269c0-.4.14-.943-.278-1.076-.279,0-.14.4-.14.536-.139-.536-.139-1.213-.557-1.482-.139-.135-.139.269-.139.4-.14-.4-.14-1.078-.56-1.213-.135,0-.135.4-.135.541-.141-.406-.42-.812-.557-1.216l-.279.271a1.231,1.231,0,0,0-.834-.807c-.139,0-.139.268-.139.4.834,1.079,1.944,1.886,2.643,2.964a6.68,6.68,0,0,1-.279,6.07c.14-.408.418-1.083,0-1.213-.276-.138,0,.406-.276.538a6.479,6.479,0,0,0-.279-2.294.693.693,0,0,0-.278.54c0-.136,0-.269-.142-.269-.276.133-.137.4-.137.673a2.953,2.953,0,0,1,.279-2.157,1.884,1.884,0,0,0-.279-.808.688.688,0,0,0-.279.537,7.807,7.807,0,0,0-.276-1.752c-.279.135-.142.406-.142.541-.276-.406.142-.943-.276-1.216-.14,0,0,.409-.279.542,0-.4.139-.945-.276-1.214-.142,0-.142.4-.142.539,0-.4-.137-1.078-.555-1.213-.141,0,0,.4-.141.541h-.281c0-.138,0-.27-.135-.27s-.279,0-.279.132c.135.406.7.406.836.81,0,.406.418.542.418.943a.542.542,0,0,0-.84-.135c.7.27,1.4.676,1.258,1.482,0-.267-.281-.534-.56-.672-.139,0-.417,0-.417.138.559.534,1.114,1.075.977,1.885a.737.737,0,0,0-.418-.674.493.493,0,0,0-.281.133,3.379,3.379,0,0,1,.56,2.562c0-.268.139-.674-.142-.537-.279,0-.137.4-.137.675l-.142-.138c-.276.409.142.676,0,1.078s-.139.675-.276,1.081c-.141-.406.137-.946-.141-1.35a4.137,4.137,0,0,0-.281,1.889c0-.135,0-.271-.135-.271-.279.136,0,.539-.279.677a20.172,20.172,0,0,0-.279-2.836c.14,0,.279,0,.279-.13,0-.273.135-.812-.139-.812-.279-.133,0,.539-.279.674,0-.537,0-1.078-.418-1.214-.281-.133.142.407-.281.54-.553.137-.276-.4-.553-.673a88.822,88.822,0,0,0,0,13.638c0,.678.418,1.35.277,2.021a1.162,1.162,0,0,0-.137.946,2.147,2.147,0,0,0,.413,1.216c.142.538-.413,1.08-.276,1.614a14.361,14.361,0,0,0,1.528,2.834h-5.56c.555-1.078,1.53-2.024,1.389-3.235,0-.4-.279-.81-.139-1.213.694-1.083.139-2.026.28-3.24a1.9,1.9,0,0,0,.275-.805,113.874,113.874,0,0,0,0-13.776c-.275.133-.14.4-.14.54-.135.27-.555.133-.694-.136.139,0,.139-.135.139-.271-.28-.4-.28.136-.418.136a1.4,1.4,0,0,0-.137,1.078c-.279-.135,0-.807-.279-.674-.276,0-.141.539-.141.812,0,.13.141.13.279.13a20.172,20.172,0,0,0-.279,2.836c-.281-.138,0-.541-.281-.677-.137,0-.137.136-.137.271a4.164,4.164,0,0,0-.279-1.889c-.278.4,0,.944-.137,1.35-.141-.406-.141-.675-.276-1.081s.276-.669,0-1.078l-.144.138c0-.273.144-.675-.137-.675-.277-.137-.14.269-.14.537a2.622,2.622,0,0,1,.556-2.427c.141-.135,0-.268-.135-.268-.421,0-.421.406-.558.674-.141-.81.414-1.351.971-1.885,0-.138-.278-.138-.413-.138-.281.138-.558.4-.558.672-.141-.806.558-1.212,1.25-1.482a.538.538,0,0,0-.836.135,3.43,3.43,0,0,1,1.119-1.347.751.751,0,0,0-.562-.268c.279-.138,0-.406.279-.541,0-.136-.139-.136-.279-.136a1.657,1.657,0,0,0-.694,1.349c0-.135,0-.539-.14-.539-.418.269-.278.812-.278,1.214-.277-.133,0-.542-.277-.542-.42.273,0,.81-.281,1.216,0-.135.14-.406-.139-.541a7.81,7.81,0,0,0-.276,1.752.69.69,0,0,0-.281-.537c-.135.4-.416.673-.135,1.077" fill="#fff"/>
      <path id="Path_917" data-name="Path 917" d="M959.682,158.8a40.377,40.377,0,0,1,12.389,6.475c7.929-6.743,19.064-9.3,29.364-7.418-9.882.27-20.183,2.831-27.417,9.571q2.925,2.628,5.845,5.259c.557-.807.557-1.887,1.252-2.695a3.2,3.2,0,0,1,2.782-1.08,2.1,2.1,0,0,1,1.672,2.428c-.418,1.617-2.227,2.022-3.76,1.079-.278-.136-.694.806-.416,1.213a5.119,5.119,0,0,0,2.782,1.887,2.258,2.258,0,0,1,3.621,0,1.805,1.805,0,0,1-.7,2.7c-2.645,1.08-5.427-.675-7.515-2.293-1.252,1.888-4.591,3.91-6.544,1.485a1.839,1.839,0,0,1-.274-1.485,2.162,2.162,0,0,1,2.5-1.615,1.851,1.851,0,0,1,1.394.808c.278.4-.142,1.077.415.944.419,0,1.111-.676.976-.809-1.391-2.563-4.036-3.91-6.126-5.8-2.088,1.888-4.45,3.235-6.124,5.663-.277.4.559.944.975.944.557,0,.279-1.212.975-1.484a2.813,2.813,0,0,1,2.086-.135,2.256,2.256,0,0,1,1.254,2.292c-.279,1.348-1.809,1.888-3.061,1.753a5.608,5.608,0,0,1-3.758-2.563c-1.952,1.485-4.175,2.968-6.82,2.7a2,2,0,0,1-1.391-.945,2.116,2.116,0,0,1,.692-2.828,2.274,2.274,0,0,1,2.926.672,5.09,5.09,0,0,0,2.782-1.887c.281-.407-.141-1.349-.555-1.213a3.571,3.571,0,0,1-2.368.4,2.244,2.244,0,0,1-1.25-2.292,2.138,2.138,0,0,1,2.645-1.618,4.927,4.927,0,0,1,1.809,1.08c.7.808.7,1.888,1.252,2.695q2.925-2.628,5.843-5.259c-7.234-6.74-17.534-9.3-27.419-9.571a37.492,37.492,0,0,1,17.261.943" fill="#fff"/>
    </g>
  </g>
</svg>
