<svg xmlns="http://www.w3.org/2000/svg" width="525" height="568.669" viewBox="0 0 525 568.669">
  <g id="logo" transform="translate(-5920 423.171)">
    <path id="Path_923" data-name="Path 923" d="M1647.135,705.832c-8.53-.251-19.073-.5-27.635-.747-8.53.244-17.067.489-25.565.741-4.211.15-8.391.175-12.615.464q-6.384.546-12.729,1.105c-8.448.778-16.858,1.368-25.079,2.423q-12.255,1.836-24.176,3.634c-7.949,1.074-15.671,2.756-23.21,4.438-7.532,1.72-14.945,3.139-22.054,5q-10.617,2.965-20.615,5.762-4.962,1.469-9.762,2.869-4.716,1.667-9.249,3.264-9.045,3.211-17.3,6.145c-1.364.509-2.715,1.005-4.041,1.494q-1.952.848-3.858,1.67-3.8,1.657-7.374,3.214c-9.5,4.174-17.85,7.608-24.341,11.287-13.171,6.942-20.532,11.066-20.532,11.066s8.082-2.731,21.94-7.784c6.832-2.768,15.57-4.977,25.313-8.128,9.692-3.277,20.981-5.889,33.135-9.09q4.556-1.178,9.3-2.41c3.214-.641,6.479-1.306,9.8-1.971q9.934-2.091,20.5-4.313c7.053-1.387,14.4-2.316,21.84-3.534,7.456-1.117,15.014-2.58,22.837-3.239q11.667-1.319,23.69-2.7c8-.729,16.081-1.08,24.226-1.72,4.066-.289,8.152-.565,12.249-.854,4.142-.175,8.379-.188,12.578-.314,8.34-.2,16.718-.389,25.091-.59q12.521.292,25,.578c.514.016,2.118.031,2.632.043Z" transform="translate(4563 -675)" fill="#b8a25f"/>
    <path id="Path_924" data-name="Path 924" d="M1791.625,741.407c-4.342-.734-6.093-1.074-6.51-1.157-6.349-1.274-13.747-2.984-20.5-4.313-7.053-1.387-14.4-2.316-21.833-3.534-7.463-1.117-15.021-2.573-22.844-3.239q-11.669-1.319-23.69-2.693c-8.018-.74-16.182-1.086-24.371-1.726q-6.147-.414-12.338-.854c-1.954-.083-3.914-.125-5.877-.161l-.061-17.663c1.636.059,2.679.133,4.307.242q6.346.555,12.647,1.111c8.391.778,16.738,1.381,24.934,2.41q12.253,1.845,24.175,3.647c7.949,1.062,15.665,2.769,23.21,4.451,7.526,1.707,14.939,3.126,22.055,4.984,7.065,1.977,13.953,3.9,20.608,5.769,3.4.953,8.07,2.358,6.089,1.775" transform="translate(4563 -675)" fill="#b8a25f"/>
    <path id="Path_925" data-name="Path 925" d="M1801.65,733.638c3.249,1.288,2.9,1.163,2.9,1.163q9.045,3.22,17.294,6.151l4.054,1.489c1.3.57,2.595,1.123,3.864,1.675,2.544,1.1,5.007,2.185,7.4,3.214,9.527,4.181,17.894,7.633,24.334,11.287,13.107,6.9,20.507,11.041,20.507,11.041s-8.044-2.718-21.966-7.8c-6.882-2.8-15.6-5-25.318-8.135-9.648-3.277-20.944-5.889-33.1-9.083" transform="translate(4563 -675)" fill="#bbbcbb"/>
    <path id="Path_926" data-name="Path 926" d="M1780.847,708.833v21.655c3.573,1.375,7.16,2.868,10.778,4.438V715.285l-10.778-6.452" transform="translate(4563 -675)" fill="#b8a25f"/>
    <path id="Path_927" data-name="Path 927" d="M1801.618,636.3v94.19c3.573,1.375,7.16,2.868,10.778,4.437V642.752q-5.39-3.225-10.778-6.453" transform="translate(4563 -675)" fill="#b8a25f"/>
    <path id="Path_928" data-name="Path 928" d="M1763.611,698.485v26.134c3.586,1.055,7.172,2.2,10.771,3.465v-23l-10.771-6.6" transform="translate(4563 -675)" fill="#b8a25f"/>
    <path id="Path_929" data-name="Path 929" d="M1694.65,692.752v22.985c.85.288,1.711.6,2.591.91.862.306,1.721.621,2.567.967,1.029.238,2.034.565,3.056.835.846-.076,1.718-.208,2.557-.27V685.3l-29.145-17.768v43.951a64.06,64.06,0,0,1,7.308.979,44.415,44.415,0,0,1,4.6,1.147V689.061Z" transform="translate(4563 -675)" fill="#b8a25f"/>
    <path id="Path_930" data-name="Path 930" d="M1676.277,662.116V548.49l115.349,82.385v80.452l-10.778-6.889v-71.4l-6.466-4.394v71.683l-10.771-6.359V621.309l-6.466-4.4v73.378l-10.771-6.7v-74l-6.465-4.4v78.828l-10.778-6.608V597.858l-6.466-4.4v72.226l-10.778-6.152V586.126l-6.465-4.4v98.844l-10.771-6.546V574.4l-6.466-4.4v99.846Z" transform="translate(4563 -675)" fill="#b3b3b3"/>
    <path id="Path_931" data-name="Path 931" d="M1722.665,694.168V717.8q-5.324-.18-10.778.018V687.482" transform="translate(4563 -675)" fill="#b8a25f"/>
    <path id="Path_932" data-name="Path 932" d="M1739.908,695.607v5.59l-10.778-6.608v-5.528Z" transform="translate(4563 -675)" fill="#b8a25f"/>
    <path id="Path_933" data-name="Path 933" d="M1739.908,687.253v5.59l-10.778-6.608v-5.528Z" transform="translate(4563 -675)" fill="#b8a25f"/>
    <path id="Path_934" data-name="Path 934" d="M1722.665,668.662v5.59l-10.778-6.608v-5.528Z" transform="translate(4563 -675)" fill="#b8a25f"/>
    <path id="Path_935" data-name="Path 935" d="M1722.665,677.151v5.59l-10.778-6.608V670.6Z" transform="translate(4563 -675)" fill="#b8a25f"/>
    <path id="Path_936" data-name="Path 936" d="M1722.665,686.071v5.59l-10.778-6.608v-5.528Z" transform="translate(4563 -675)" fill="#b8a25f"/>
    <path id="Path_937" data-name="Path 937" d="M1739.908,704.9l-10.778-6.66v19.931c3.617.276,7.217.653,10.778,1.18V704.782" transform="translate(4563 -675)" fill="#b8a25f"/>
    <path id="Path_938" data-name="Path 938" d="M1746.507,687.637l10.638,6.452v28.753c-3.58-.916-7.167-1.751-10.772-2.429V687.637" transform="translate(4563 -675)" fill="#b8a25f"/>
    <path id="Path_939" data-name="Path 939" d="M1521.053,302.492V422.706h5.4V315.743l6.465-3.277v110.24h10.778V306.993l6.465-3.277v118.99h10.778V298.248l6.466-3.282v127.74h10.771v-133.2l6.466-3.284V422.706h10.771V280.754l6.465-3.277V422.706h10.778V272.01l6.466-3.283V422.706h5.12V251.829Z" transform="translate(4563 -675)" fill="#b8a25f"/>
    <path id="Path_940" data-name="Path 940" d="M1647.135,668.81V717.1c-3.586-.169-7.185-.15-10.771.007V671.21Z" transform="translate(4563 -675)" fill="#b8a25f"/>
    <path id="Path_941" data-name="Path 941" d="M1619.12,592.6V698.11c3.95-.467,5.361-.343,10.778-.28v-107.6Z" transform="translate(4563 -675)" fill="#b8a25f"/>
    <path id="Path_942" data-name="Path 942" d="M1595.412,625.369V396.411l6.465-3.622V656.94c3.593.055,7.266-1.553,10.778-2.5V386.763l6.466-3.622v202.19l10.778-2.77V377.109l6.465-3.616V663.979l10.772-2.12V367.467l6.465-3.622V526.579l11.863,8.188v-203.7L1479.571,443.86V660.178c.53-.144,1.023-.351,1.559-.483q5.4-1.356,10.847-2.737V454.3l6.466-3.616V689.711q5.37-1.356,10.772-2.686V444.651l6.465-3.616V685.48q5.379-1.3,10.772-2.53V435.009l6.465-3.622v250.6q5.381-1.168,10.778-2.222V425.355l6.466-3.616V679.106q5.388-.98,10.777-1.8v-261.6l6.466-3.622V676.6q5.379-.707,10.771-1.218V406.059l6.466-3.616V632.06Z" transform="translate(4563 -675)" fill="#b3b3b3"/>
    <path id="Path_943" data-name="Path 943" d="M1653.6,535.141V717.6c3.983.408,7.943,1,11.863,1.795V542.913Z" transform="translate(4563 -675)" fill="#b8a25f"/>
    <path id="Path_944" data-name="Path 944" d="M1595.412,644.716v18.706l17.243-3.928v39.1s-97.447,3.039-134.7,18.506V664.27l13.628-3.325v41.229a597.825,597.825,0,0,1,110.279-13.113V669.923l-17.39,4.329.165-13.3V650.722Z" transform="translate(4563 -675)" fill="#b8a25f"/>
    <path id="Path_945" data-name="Path 945" d="M1595.55,633.536v-5.59l-10.778,6.608v5.528Z" transform="translate(4563 -675)" fill="#b8a25f"/>
    <path id="Path_946" data-name="Path 946" d="M1595.55,641.889V636.3l-10.778,6.608v5.528Z" transform="translate(4563 -675)" fill="#b8a25f"/>
    <path id="Path_947" data-name="Path 947" d="M1436.162,787.713v20.439h-22.42q-6.417,0-9.814-3.075t-3.4-8.9a19.209,19.209,0,0,1,1.119-6.057l4.788-1.018.467.463a21.2,21.2,0,0,0-.746,5.04,5.463,5.463,0,0,0,1.978,4.647q1.976,1.5,6.815,1.5h14.7v-13.04Zm-20.6-.925-4.093-4.671,5.3-4.3,2.93,3.376,4-3.237,4,4.67-5.21,4.3-2.976-3.421Z" transform="translate(4563 -675)" fill="#fff"/>
    <rect id="Rectangle_356" data-name="Rectangle 356" width="6.512" height="34.682" transform="translate(6005.208 98.47)" fill="#fff"/>
    <path id="Path_948" data-name="Path 948" d="M1465.417,789.1v16.555q0,6.1-2.6,9.572t-7.673,3.469a10.784,10.784,0,0,1-4.094-.879l-1.21-6.243.419-.37a19.022,19.022,0,0,0,4.838.648q3.907,0,3.907-4.995V789.1Z" transform="translate(4563 -675)" fill="#fff"/>
    <path id="Path_949" data-name="Path 949" d="M1481.65,801.308v6.335l-.465.509h-10.419V773.471h6.512v27.282h3.907Z" transform="translate(4563 -675)" fill="#fff"/>
    <path id="Path_950" data-name="Path 950" d="M1508.3,801.261v6.428l-.464.462h-.466a5.311,5.311,0,0,1-2.838-.716,13.252,13.252,0,0,1-2.557-2.2l-4.14,4.07-10.232-4.347a8.693,8.693,0,0,1-2.791,2.519,7.716,7.716,0,0,1-3.442.671h-.186l-.466-.6v-5.872l.466-.926h.7a2.646,2.646,0,0,0,1.976-1.133,38.238,38.238,0,0,0,2.815-4.185,24.938,24.938,0,0,1,4.628-5.687,7.742,7.742,0,0,1,5.186-2.034,6.437,6.437,0,0,1,5.372,2.981,12.078,12.078,0,0,1,2.163,7.284,11.931,11.931,0,0,1-.139,1.757,5.839,5.839,0,0,0,3.675,1.017h.279Zm-13.209-6.242a2.6,2.6,0,0,0-1.931,1.017,21.1,21.1,0,0,0-2.349,3.7l6.791,2.914a10.218,10.218,0,0,0,.6-3.423,4.743,4.743,0,0,0-.93-3.028,2.73,2.73,0,0,0-2.186-1.179" transform="translate(4563 -675)" fill="#fff"/>
    <path id="Path_951" data-name="Path 951" d="M1524.673,800.752l.465.509v6.428l-.465.462h-.464a6.445,6.445,0,0,1-1.815-.231,4.787,4.787,0,0,1-1.627-.9,16.4,16.4,0,0,1-1.28-1.109q-.443-.439-1.419-1.5l-2.325,3.745h-7.907l-.931-.924V801.4l.931-.648h6.419V789.1h6.512v10.682a6.08,6.08,0,0,0,3.627.971Zm-11.72-17.2L1509,778.881l5.117-4.255,2.976,3.56,4.186-3.375,3.907,4.67-5.07,4.162-3.07-3.56Zm4.139-7.583-3.814-4.532,4.93-4.069,3.768,4.532Z" transform="translate(4563 -675)" fill="#fff"/>
    <path id="Path_952" data-name="Path 952" d="M1541.976,801.261v6.428l-.465.462h-.464a6.445,6.445,0,0,1-1.815-.231,4.8,4.8,0,0,1-1.627-.9,16.655,16.655,0,0,1-1.28-1.109q-.442-.439-1.419-1.5l-2.325,3.745h-7.907l-.931-.924V801.4l.931-.648h6.419V789.1h6.512v10.682a6.08,6.08,0,0,0,3.627.971h.279Zm-12.6-16.185-4.092-4.67,5.3-4.3,2.93,3.376,4-3.237,4,4.67-5.209,4.3-2.977-3.422Z" transform="translate(4563 -675)" fill="#fff"/>
    <path id="Path_953" data-name="Path 953" d="M1577.652,800.984,1573,808.152a22.88,22.88,0,0,1-11.3-3.33l-2.466,3.33a12.738,12.738,0,0,1-8.325-3.283l-.511,3.283h-8.885l-.465-.462v-6.475l.465-.462h3.721l1.628-11.19h6.373l-1.489,9.757a12.725,12.725,0,0,0,5.628,1.387l1.349-11.144H1565l-1.162,10.173a28.272,28.272,0,0,0,7.21,1.017q-.978-6.75-2.326-12.624l6.418-1.665a141.812,141.812,0,0,1,2.512,14.52" transform="translate(4563 -675)" fill="#fff"/>
    <path id="Path_954" data-name="Path 954" d="M1600.163,791.782a43.652,43.652,0,0,1,6.186,9.433l-3.115,6.936h-20.467l-2.326-6.2.187-.648a37.914,37.914,0,0,0,5.883-3.721,52.382,52.382,0,0,0,5.374-4.6l.7-.74q-3.536-3.328-11.721-9.664v-.509l4.279-3.838q6.327,4.9,10.373,8.693a28.468,28.468,0,0,0,.558-6.428V773.47h6.42v6.058a41.525,41.525,0,0,1-.513,7.26,15.254,15.254,0,0,1-1.814,4.994m-3.627,4.531-.606.6a27.389,27.389,0,0,1-6.232,4.392h10.558a45.476,45.476,0,0,0-3.72-4.994" transform="translate(4563 -675)" fill="#fff"/>
    <rect id="Rectangle_357" data-name="Rectangle 357" width="6.512" height="34.682" transform="translate(6173.07 98.47)" fill="#fff"/>
    <path id="Path_955" data-name="Path 955" d="M1654.954,801.447v6.012l-.465.693h-9.814v-3.283a12.49,12.49,0,0,1-6.652,2.4q-3.906,0-5.883-2.174a8.06,8.06,0,0,1-1.978-5.642,15.39,15.39,0,0,1,1.908-7.259l12.605-3.561V784.8h6.418v15.953h3.4Zm-19.443-17.664-4.092-4.671,5.3-4.3,2.931,3.376,4-3.236,4,4.669-5.209,4.3-2.977-3.422ZM1639,800.291a14.452,14.452,0,0,0,5.675-1.3v-4.9l-8.559,2.405a10.507,10.507,0,0,0-.139,1.619q0,2.174,3.023,2.173" transform="translate(4563 -675)" fill="#fff"/>
    <path id="Path_956" data-name="Path 956" d="M1671.791,801.262v6.428l-.465.462h-.465a6.48,6.48,0,0,1-1.814-.231,4.823,4.823,0,0,1-1.627-.9,16.2,16.2,0,0,1-1.28-1.11q-.443-.439-1.419-1.5l-2.326,3.745h-7.907l-.93-.924V801.4l.93-.648h6.42V789.1h6.512v10.682a6.084,6.084,0,0,0,3.627.971h.279Zm-4.512,9.942,4.14,4.994-5.162,4.3-3.21-3.792-4.6,3.792-4.186-4.994,5.256-4.3,3.117,3.792Z" transform="translate(4563 -675)" fill="#fff"/>
    <path id="Path_957" data-name="Path 957" d="M1698.443,801.261v6.428l-.464.462h-.466a5.311,5.311,0,0,1-2.838-.716,13.28,13.28,0,0,1-2.558-2.2l-4.139,4.07-10.232-4.347a8.692,8.692,0,0,1-2.791,2.519,7.715,7.715,0,0,1-3.442.671h-.187l-.465-.6v-5.872l.465-.926h.7a2.647,2.647,0,0,0,1.976-1.133,38.238,38.238,0,0,0,2.815-4.185,24.912,24.912,0,0,1,4.628-5.687,7.742,7.742,0,0,1,5.186-2.034,6.437,6.437,0,0,1,5.372,2.981,12.078,12.078,0,0,1,2.163,7.284,11.931,11.931,0,0,1-.139,1.757,5.839,5.839,0,0,0,3.675,1.017h.279Zm-13.209-6.242a2.6,2.6,0,0,0-1.931,1.017,21.043,21.043,0,0,0-2.349,3.7l6.791,2.914a10.218,10.218,0,0,0,.6-3.423,4.743,4.743,0,0,0-.93-3.028,2.731,2.731,0,0,0-2.186-1.179" transform="translate(4563 -675)" fill="#fff"/>
    <path id="Path_958" data-name="Path 958" d="M1715.28,801.261v6.428l-.465.462h-.464a6.445,6.445,0,0,1-1.815-.231,4.8,4.8,0,0,1-1.627-.9,16.608,16.608,0,0,1-1.28-1.109q-.443-.439-1.419-1.5l-2.325,3.745h-7.907l-.931-.924V801.4l.931-.648h6.419V789.1h6.512v10.682a6.079,6.079,0,0,0,3.627.971h.279Zm-8.372-16.924-4.092-4.809,5.255-4.3,4,4.809Z" transform="translate(4563 -675)" fill="#fff"/>
    <path id="Path_959" data-name="Path 959" d="M1720.4,787.713h6.511v20.439h-12.093l-.93-.925V801.4l.93-.647h5.582Zm-1.535-3.561-4.093-4.671,5.3-4.3,2.929,3.376,4-3.237,4,4.67-5.21,4.3-2.976-3.421Z" transform="translate(4563 -675)" fill="#fff"/>
    <path id="Path_960" data-name="Path 960" d="M1765.281,801.447v6.012l-.465.693H1755v-3.283a12.489,12.489,0,0,1-6.652,2.4q-3.906,0-5.883-2.174a8.06,8.06,0,0,1-1.978-5.642,15.39,15.39,0,0,1,1.908-7.259l12.6-3.561V784.8h6.418v15.953h3.4Zm-19.443-17.664-4.092-4.671,5.3-4.3,2.931,3.376,4-3.236,4,4.669-5.209,4.3-2.977-3.422Zm3.489,16.508A14.451,14.451,0,0,0,1755,799v-4.9l-8.559,2.405a10.493,10.493,0,0,0-.139,1.619q0,2.174,3.023,2.173" transform="translate(4563 -675)" fill="#fff"/>
    <path id="Path_961" data-name="Path 961" d="M1776.537,773.47v34.682h-11.721l-.6-.509v-6.336l.6-.554h4.837V773.47Z" transform="translate(4563 -675)" fill="#fff"/>
    <path id="Path_962" data-name="Path 962" d="M1793.467,801.308v6.335l-.465.509h-10.419V773.471h6.512v27.282H1793Z" transform="translate(4563 -675)" fill="#fff"/>
    <path id="Path_963" data-name="Path 963" d="M1808.536,788.823a11.664,11.664,0,0,1,8.768,3.376,14.756,14.756,0,0,1,3.884,9.016l-3.814,6.937H1793l-.558-.971v-5.549l.558-.879h22a6.863,6.863,0,0,0-3.163-4.092,12.743,12.743,0,0,0-6-1.179,53.221,53.221,0,0,0-8.512.786l-2.558-5.873,16-16.925h.558l3.257,5.318-11.536,10.5a37.97,37.97,0,0,1,5.488-.462" transform="translate(4563 -675)" fill="#fff"/>
    <path id="Path_964" data-name="Path 964" d="M1836.025,786a7.081,7.081,0,0,1,4.535,1.619,11.712,11.712,0,0,1,3.256,4.231,25.126,25.126,0,0,1,1.861,5.664,30.724,30.724,0,0,1,.627,6.2q0,14.937-12.838,14.936a16.553,16.553,0,0,1-6.325-1.387l-1.163-6.243.419-.37a26.192,26.192,0,0,0,7.721,1.156,8.367,8.367,0,0,0,4.163-.832,4.415,4.415,0,0,0,1.93-2.959q-9.675-.926-15.023-7.168a26.7,26.7,0,0,1,4.255-10.682q3-4.161,6.582-4.162m-.744,7.492a3.072,3.072,0,0,0-2.094,1.179,9.137,9.137,0,0,0-1.86,3.306,16.58,16.58,0,0,0,8.977,3.191,13.306,13.306,0,0,0-1.815-5.642,3.846,3.846,0,0,0-3.208-2.034" transform="translate(4563 -675)" fill="#fff"/>
  </g>
</svg>
