<svg xmlns="http://www.w3.org/2000/svg" xmlns:xlink="http://www.w3.org/1999/xlink" width="123.676" height="123.999" viewBox="0 0 123.676 123.999">
  <defs>
    <clipPath id="clip-path">
      <path id="Path_786" data-name="Path 786" d="M1474,76a45,45,0,1,0,45-45,45,45,0,0,0-45,45" fill="none"/>
    </clipPath>
  </defs>
  <g id="user-img" transform="translate(-1457.019 -14)">
    <path id="Path_766" data-name="Path 766" d="M1574.722,76a56.027,56.027,0,1,1-56.027-56.027A56.028,56.028,0,0,1,1574.722,76" fill="#60d141"/>
    <path id="Path_767" data-name="Path 767" d="M1580.031,76a61.337,61.337,0,0,1-61.336,61.336c-81.362-3.231-81.339-119.453,0-122.672A61.337,61.337,0,0,1,1580.031,76Z" fill="none" stroke="#006837" stroke-miterlimit="10" stroke-width="1.327" stroke-dasharray="6.021 6.021"/>
    <path id="Path_768" data-name="Path 768" d="M1564,76a45,45,0,1,1-45-45,45,45,0,0,1,45,45" fill="#f2e9e9"/>
    <g id="Group_423" data-name="Group 423">
      <g id="Group_289" data-name="Group 289" clip-path="url(#clip-path)">
        <rect id="Rectangle_286" data-name="Rectangle 286" width="10.954" height="10.954" transform="translate(1513.512 96.58)" fill="#ec7665"/>
        <path id="Path_769" data-name="Path 769" d="M1535.985,71.281s1.906-2.643,6.037-1.322,1.584,14.707-6.064,15.862Z" fill="#ffb286"/>
        <path id="Path_770" data-name="Path 770" d="M1537.7,74.8s.976-2.439,3.025-2.342,1.366,6.05-3.025,9.367Z" fill="#ec7665"/>
        <path id="Path_771" data-name="Path 771" d="M1501.061,71.281s-1.906-2.643-6.036-1.322-1.585,14.707,6.063,15.862Z" fill="#ffb286"/>
        <path id="Path_772" data-name="Path 772" d="M1499.348,74.8s-.977-2.439-3.025-2.342-1.367,6.05,3.025,9.367Z" fill="#ec7665"/>
        <path id="Path_773" data-name="Path 773" d="M1518.989,42.975h0a20.143,20.143,0,0,0-15.569,7.389s-3.206,20.824-.484,33.467c2.164,10.054,10.5,15.638,14.923,16.219.375.021.751.033,1.13.033a20.221,20.221,0,0,0,20.162-20.162V63.137a20.221,20.221,0,0,0-20.162-20.162" fill="#ffb286"/>
        <path id="Path_774" data-name="Path 774" d="M1498.828,79.921a20.226,20.226,0,0,0,19.031,20.129c-4.426-.581-12.759-6.165-14.923-16.219-2.722-12.643.483-33.467.483-33.467a20.052,20.052,0,0,0-4.591,12.773Z" fill="#ec7665"/>
        <path id="Path_775" data-name="Path 775" d="M1506.885,55.429s14.282,9.619,26.975,2.152c0,0-26.485-9.229-26.618-6.049a20.549,20.549,0,0,1-.357,3.9" fill="#ec7665"/>
        <path id="Path_776" data-name="Path 776" d="M1496.3,118.61c1.406-1.428,2.333-2.262,2.333-2.262a7.8,7.8,0,0,1,.381,2.262h1.2a45.041,45.041,0,0,1,4.777-4.119l-2.754-3.939-2.748-3.951a63.466,63.466,0,0,0-12.222,12.009Z" fill="#00bd9e"/>
        <path id="Path_777" data-name="Path 777" d="M1498.195,118.61v-1.859c-.4.378-1.068,1.016-1.9,1.859Z" fill="#009889"/>
        <path id="Path_778" data-name="Path 778" d="M1538.987,118.61a7.824,7.824,0,0,1,.382-2.279s.936.842,2.352,2.279h9.03a63.481,63.481,0,0,0-12.238-12.026l-2.747,3.951-2.754,3.939a45.5,45.5,0,0,1,4.794,4.136Z" fill="#00bd9e"/>
        <path id="Path_779" data-name="Path 779" d="M1541.721,118.61c-.838-.851-1.51-1.5-1.916-1.877v1.877Z" fill="#009889"/>
        <path id="Path_780" data-name="Path 780" d="M1538.78,54.106l-1.247.549c-1.834-2.922-6.736-2.274-6.736-2.274-.488,3.869,4.288,6.956,4.288,6.956l.307,7.419,3.785,5.94c0-.052.005-.1.008-.155l.031.078c6.18-14.42-.436-18.513-.436-18.513" fill="#00222d"/>
        <path id="Path_781" data-name="Path 781" d="M1499.433,54.106l1.247.549c1.834-2.922,6.736-2.274,6.736-2.274.488,3.869-4.288,6.956-4.288,6.956l-.307,7.419-3.784,5.94c0-.052-.006-.1-.009-.155l-.031.078c-6.18-14.42.436-18.513.436-18.513" fill="#00222d"/>
        <path id="Path_782" data-name="Path 782" d="M1503.156,46.855a1.829,1.829,0,0,0,1.926,2.428,12.366,12.366,0,0,1,3.978.207c4.1.854,8.909,7.178,21.153,5.04a21.214,21.214,0,0,0,9.11-3.918c.265-4.753-1.13-12.854-13.266-14.471a64.779,64.779,0,0,0-13.88,1.182,39.844,39.844,0,0,0-6.6,2.548,3.652,3.652,0,0,1-.08.588c-.342,1.536-1.556,4.164-2.342,6.4" fill="#013047"/>
        <path id="Path_783" data-name="Path 783" d="M1530.214,54.53c-12.245,2.138-17.057-4.186-21.153-5.04a12.39,12.39,0,0,0-3.962-.209,1.831,1.831,0,0,1-1.943-2.425c.786-2.232,2-4.86,2.342-6.4a3.551,3.551,0,0,0,.081-.588,19.317,19.317,0,0,0-2.486,1.686,11.389,11.389,0,0,0-1.812,1.568,8.792,8.792,0,0,0-2.453,6.371c.171,13.6,2.5,4.354,8.379,3.553,0,0,7.748,7.48,21.641,5.343a21.751,21.751,0,0,0,9.932-4.286,16.684,16.684,0,0,0,.543-3.494,21.2,21.2,0,0,1-9.109,3.918" fill="#00222d"/>
        <path id="Path_784" data-name="Path 784" d="M1536.6,106.02h-12.131s-.73,3.343-5.327,3.343-5.658-3.343-5.658-3.343h-12.075a3.044,3.044,0,0,0-3.212,3.212V122.4l41.615-.083V109.232a3.109,3.109,0,0,0-3.212-3.212" fill="#00bd9e"/>
        <path id="Path_785" data-name="Path 785" d="M1519.139,109.363c4.6,0,5.328-3.343,5.328-3.343h-10.986s1.061,3.343,5.658,3.343" fill="#ec7665"/>
      </g>
    </g>
  </g>
</svg>
